<?xml version="1.0" encoding="utf-8"?>
<!-- Generator: Adobe Illustrator 16.0.0, SVG Export Plug-In . SVG Version: 6.00 Build 0)  -->
<!DOCTYPE svg PUBLIC "-//W3C//DTD SVG 1.1//EN" "http://www.w3.org/Graphics/SVG/1.1/DTD/svg11.dtd">
<svg version="1.1" id="Layer_1" xmlns="http://www.w3.org/2000/svg" xmlns:xlink="http://www.w3.org/1999/xlink" x="0px" y="0px"
	 width="612px" height="792px" viewBox="0 0 612 792" enable-background="new 0 0 612 792" xml:space="preserve">
<g>
	
		<rect x="131.417" y="496.834" fill="#FFFFFF" stroke="#1E1E1E" stroke-width="5" stroke-linejoin="round" stroke-miterlimit="10" width="350" height="240"/>
	<rect x="134.167" y="489" fill="#1E1E1E" width="344.5" height="6.834"/>
	<rect x="134.459" y="736.834" fill="#1E1E1E" width="25.25" height="6.834"/>
	<polygon fill="#1E1E1E" points="481.417,57 131.417,57 134.167,49.583 478.667,49.583 	"/>
	<path fill="#FFFFFF" stroke="#1E1E1E" stroke-width="3" stroke-linejoin="round" stroke-miterlimit="10" d="M465.75,532
		c-157.512,7-318.666,0-318.666,0v11.333c0,0,161.154,7,318.666,0V532z"/>
	<polygon fill="#FFFFFF" stroke="#1E1E1E" stroke-width="5" stroke-linejoin="round" stroke-miterlimit="10" points="306.417,57 
		131.417,57 131.417,487 306.417,487 481.417,487 481.417,57 	"/>
	<rect x="298.917" y="57" fill="#1E1E1E" width="15" height="430"/>
	<rect x="432.751" y="73.75" fill="#1E1E1E" width="32.999" height="10.5"/>
	<rect x="453.417" y="736.834" fill="#1E1E1E" width="25.25" height="6.834"/>
	<g>
		
			<rect x="271.417" y="79" fill="#FFFFFF" stroke="#1E1E1E" stroke-width="3" stroke-linejoin="round" stroke-miterlimit="10" width="12" height="386"/>
	</g>
	<g>
		
			<rect x="328.979" y="79" fill="#FFFFFF" stroke="#1E1E1E" stroke-width="3" stroke-linejoin="round" stroke-miterlimit="10" width="12" height="386"/>
	</g>
</g>
</svg>
