<?xml version="1.0" encoding="utf-8"?>
<!-- Generator: Adobe Illustrator 16.0.0, SVG Export Plug-In . SVG Version: 6.00 Build 0)  -->
<!DOCTYPE svg PUBLIC "-//W3C//DTD SVG 1.1//EN" "http://www.w3.org/Graphics/SVG/1.1/DTD/svg11.dtd">
<svg version="1.1" id="Layer_1" xmlns="http://www.w3.org/2000/svg" xmlns:xlink="http://www.w3.org/1999/xlink" x="0px" y="0px"
	 width="223.75px" height="132.5px" viewBox="0 0 223.75 132.5" enable-background="new 0 0 223.75 132.5" xml:space="preserve">
<g>
	
		<rect x="168.584" y="9.851" fill="#FFFFFF" stroke="#252524" stroke-width="3" stroke-miterlimit="10" width="48.18" height="112"/>
	<rect x="6.764" y="26.083" opacity="0.2" fill="#3D3D3D" width="155.82" height="74.667"/>
	<rect x="6.764" y="9.851" fill="none" stroke="#252524" stroke-width="3" stroke-miterlimit="10" width="155.82" height="112"/>
	<line fill="none" stroke="#1D1D1B" stroke-width="2" stroke-miterlimit="10" x1="6.764" y1="26.083" x2="216.764" y2="26.083"/>
	<line fill="none" stroke="#1D1D1B" stroke-width="2" stroke-miterlimit="10" x1="6.764" y1="100.75" x2="216.764" y2="100.75"/>
	<rect x="162.584" y="11.285" fill="#1D1D1B" width="6" height="109.131"/>
	<path fill="none" stroke="#1E1E1E" stroke-miterlimit="10" d="M176.174,100.75v11.333c0,1.104,0.896,2,2,2h29c1.104,0,2-0.896,2-2
		V100.75H176.174z"/>
	<rect x="176.174" y="46.417" fill="none" stroke="#1E1E1E" stroke-miterlimit="10" width="33" height="40"/>
	<line fill="none" stroke="#1E1E1E" stroke-miterlimit="10" x1="176.174" y1="54.417" x2="209.174" y2="54.417"/>
	<line fill="none" stroke="#1E1E1E" stroke-miterlimit="10" x1="176.174" y1="62.417" x2="209.174" y2="62.417"/>
	<line fill="none" stroke="#1E1E1E" stroke-miterlimit="10" x1="176.174" y1="70.417" x2="209.174" y2="70.417"/>
	<line fill="none" stroke="#1E1E1E" stroke-miterlimit="10" x1="176.174" y1="78.417" x2="209.174" y2="78.417"/>
	<rect x="176.174" y="30.083" fill="none" stroke="#1E1E1E" stroke-miterlimit="10" width="33" height="13"/>
	<rect x="186.917" y="90.417" fill="none" stroke="#1E1E1E" stroke-miterlimit="10" width="22.257" height="6.667"/>
	<rect x="176.404" y="90.417" fill="none" stroke="#1E1E1E" stroke-miterlimit="10" width="6.616" height="6.667"/>
	<line fill="none" stroke="#1E1E1E" stroke-miterlimit="10" x1="187.327" y1="46.417" x2="187.327" y2="86.417"/>
	<line fill="none" stroke="#1E1E1E" stroke-miterlimit="10" x1="198.251" y1="46.417" x2="198.251" y2="86.417"/>
</g>
</svg>
