<?xml version="1.0" encoding="utf-8"?>
<!-- Generator: Adobe Illustrator 16.0.0, SVG Export Plug-In . SVG Version: 6.00 Build 0)  -->
<!DOCTYPE svg PUBLIC "-//W3C//DTD SVG 1.1//EN" "http://www.w3.org/Graphics/SVG/1.1/DTD/svg11.dtd">
<svg version="1.1" id="Layer_1" xmlns="http://www.w3.org/2000/svg" xmlns:xlink="http://www.w3.org/1999/xlink" x="0px" y="0px"
	 width="331.25px" height="441.25px" viewBox="0 0 331.25 441.25" enable-background="new 0 0 331.25 441.25" xml:space="preserve">
<g>
	
		<rect x="15.289" y="347.084" fill="#FFFFFF" stroke="#1D1D1B" stroke-width="4" stroke-linejoin="round" stroke-miterlimit="10" width="300" height="80.872"/>
	
		<rect x="15.289" y="20.043" fill="#FFFFFF" stroke="#1D1D1B" stroke-width="4" stroke-linejoin="round" stroke-miterlimit="10" width="300" height="66.5"/>
	
		<rect x="15.289" y="93.75" fill="#FFFFFF" stroke="#1D1D1B" stroke-width="4" stroke-linejoin="round" stroke-miterlimit="10" width="300" height="245.049"/>
	<rect x="15.289" y="338.799" fill="#1D1D1B" width="300" height="6.834"/>
	<rect x="15.289" y="85.916" fill="#1D1D1B" width="300" height="6.834"/>
	<path fill="none" stroke="#1D1D1B" stroke-width="4" stroke-miterlimit="10" d="M246.699,260.264c0,2.584-2.096,4.679-4.679,4.679
		H88.558c-2.584,0-4.679-2.095-4.679-4.679v-96.694c0-2.584,2.095-4.679,4.679-4.679h153.463c2.583,0,4.679,2.095,4.679,4.679
		V260.264z"/>
	<ellipse fill="#1D1D1B" cx="165.289" cy="316.249" rx="16" ry="6.334"/>
	<path fill="#FFFFFF" stroke="#1D1D1B" stroke-width="3" stroke-linejoin="round" stroke-miterlimit="10" d="M302.579,107.06
		c-135.721,7-274.58,0-274.58,0v11.333c0,0,138.859,7,274.58,0V107.06z"/>
	<line fill="none" stroke="#1D1D1B" stroke-width="2" stroke-miterlimit="10" x1="15.289" y1="359.084" x2="315.289" y2="359.084"/>
	<circle fill="#FFFFFF" stroke="#1D1D1B" stroke-width="2" stroke-miterlimit="10" cx="40.206" cy="53.238" r="12.207"/>
	<circle fill="#FFFFFF" stroke="#1D1D1B" stroke-width="2" stroke-miterlimit="10" cx="78.334" cy="53.238" r="12.207"/>
	<circle fill="#FFFFFF" stroke="#1D1D1B" stroke-width="2" stroke-miterlimit="10" cx="290.372" cy="53.238" r="12.207"/>
	<circle fill="#FFFFFF" stroke="#1D1D1B" stroke-width="2" stroke-miterlimit="10" cx="252.244" cy="53.238" r="12.207"/>
	
		<rect x="116.023" y="36.962" fill="#FFFFFF" stroke="#1D1D1B" stroke-width="2" stroke-linejoin="round" stroke-miterlimit="10" width="98.531" height="32.551"/>
	<rect x="16.709" y="427.624" fill="#1D1D1B" width="25.25" height="6.834"/>
	<rect x="288.001" y="427.624" fill="#1D1D1B" width="25.25" height="6.834"/>
</g>
</svg>
