<?xml version="1.0" encoding="utf-8"?>
<!-- Generator: Adobe Illustrator 16.0.0, SVG Export Plug-In . SVG Version: 6.00 Build 0)  -->
<!DOCTYPE svg PUBLIC "-//W3C//DTD SVG 1.1//EN" "http://www.w3.org/Graphics/SVG/1.1/DTD/svg11.dtd">
<svg version="1.1" id="Layer_1" xmlns="http://www.w3.org/2000/svg" xmlns:xlink="http://www.w3.org/1999/xlink" x="0px" y="0px"
	 width="295px" height="408.75px" viewBox="0 0 295 408.75" enable-background="new 0 0 295 408.75" xml:space="preserve">
<g>
	<circle fill="#A8A8A9" cx="146.866" cy="43.623" r="22"/>
	<rect x="15.617" y="393.624" fill="#1D1D1B" width="262.498" height="6.834"/>
	<path fill="none" stroke="#A8A8A9" stroke-width="4" stroke-miterlimit="10" d="M11.866,120.337c0,0,134.792-88.71,270,0"/>
	<path fill="none" stroke="#1D1D1B" stroke-width="4" stroke-miterlimit="10" d="M276.866,13.624h-260c-2.762,0-5,2.238-5,5v45v10
		v320h270v-320v-10v-45C281.866,15.862,279.628,13.624,276.866,13.624z"/>
	<circle fill="none" stroke="#1D1D1B" stroke-width="4" stroke-miterlimit="10" cx="146.866" cy="239.956" r="112.5"/>
	<path fill="none" stroke="#1D1D1B" stroke-width="4" stroke-miterlimit="10" d="M11.866,117.337c0,0,134.792-88.71,270,0"/>
	<path fill="#A8A8A9" d="M52.45,239.956c0-6.104,0.579-12.07,1.686-17.852c8.346-43.609,46.689-76.564,92.73-76.564
		c52.145,0,94.416,42.271,94.416,94.416s-42.271,94.416-94.416,94.416c-46.038,0-84.38-32.949-92.729-76.555
		C53.029,252.034,52.45,246.063,52.45,239.956z"/>
	<circle fill="#FFFFFF" stroke="#1D1D1B" stroke-width="2" stroke-miterlimit="10" cx="146.866" cy="43.623" r="20"/>
	<path fill="#FFFFFF" stroke="#1D1D1B" stroke-width="4" stroke-miterlimit="10" d="M56.95,239.956c0-5.812,0.552-11.496,1.605-17
		c7.947-41.531,44.464-72.916,88.311-72.916c49.659,0,89.916,40.258,89.916,89.916c0,49.66-40.257,89.916-89.916,89.916
		c-43.844,0-80.358-31.379-88.31-72.906C57.502,251.458,56.95,245.772,56.95,239.956z"/>
	<g>
		<polyline points="58.562,256.968 71.285,256.956 71.285,222.956 58.562,222.956 		"/>
		<path d="M58.556,222.956c-1.054,5.504-1.605,11.188-1.605,17c0,5.816,0.552,11.502,1.606,17.01"/>
	</g>
	
		<rect x="215.616" y="23.623" fill="none" stroke="#1D1D1B" stroke-width="2" stroke-miterlimit="10" width="57.083" height="20.001"/>
	<path fill="none" stroke="#1D1D1B" stroke-width="2" stroke-miterlimit="10" d="M19.825,23.623v16.334v3.667v5c0,2.762,2.238,5,5,5
		h46.251c2.762,0,5-2.238,5-5v-5v-3.667V23.623H19.825z"/>
	<line fill="none" stroke="#1D1D1B" stroke-width="2" stroke-miterlimit="10" x1="146.866" y1="23.623" x2="146.866" y2="33.624"/>
	<circle fill="none" stroke="#1D1D1B" stroke-width="2" stroke-miterlimit="10" cx="190.45" cy="35.124" r="6.5"/>
	<circle fill="none" stroke="#1D1D1B" stroke-width="2" stroke-miterlimit="10" cx="190.45" cy="53.624" r="6.5"/>
	<circle fill="none" stroke="#1D1D1B" stroke-width="2" stroke-miterlimit="10" cx="101.45" cy="35.124" r="6.5"/>
	<circle fill="none" stroke="#1D1D1B" stroke-width="2" stroke-miterlimit="10" cx="101.45" cy="53.624" r="6.5"/>
</g>
</svg>
