<?xml version="1.0" encoding="utf-8"?>
<!-- Generator: Adobe Illustrator 16.0.0, SVG Export Plug-In . SVG Version: 6.00 Build 0)  -->
<!DOCTYPE svg PUBLIC "-//W3C//DTD SVG 1.1//EN" "http://www.w3.org/Graphics/SVG/1.1/DTD/svg11.dtd">
<svg version="1.1" id="Jenn-Air" xmlns="http://www.w3.org/2000/svg" xmlns:xlink="http://www.w3.org/1999/xlink" x="0px" y="0px"
	 width="288px" height="74px" viewBox="0 0 288 74" enable-background="new 0 0 288 74" xml:space="preserve">
<path fill="#1E1E1E" d="M44.811,34.233c-4.287,4.81-8.571,4.81-8.571,4.81h-9.855c6.431-1.189,9.855-6.519,13.712-11.434
	c3.425-4.913,8.563-4.655,8.563-4.655h5.144v-7.912c0-1.811-1.287-3.312-2.999-3.312H18.248c-2.14,0-3.427,1.501-3.427,3.312v15.93
	h8.571c0,0,2.136,3.315,5.136,5.33c0,0-2.143,1.604-5.568,1.604c-3.424,0-4.711-1.292-8.138-4.552v14.278
	c0,1.757,1.287,3.259,3.427,3.259h32.558c1.711,0,2.999-1.502,2.999-3.259V24.663C49.947,26.474,49.09,29.888,44.811,34.233"/>
<polyline fill="#1E1E1E" points="100.494,13.336 79.073,13.336 79.073,50.89 100.924,50.89 100.924,45.974 84.641,45.974 
	84.641,34.386 99.637,34.386 99.637,29.473 84.641,29.473 84.641,18.093 100.494,18.093 100.494,13.336 "/>
<polyline fill="#1E1E1E" points="105.206,50.89 105.206,13.336 109.919,13.336 135.194,42.406 135.194,13.336 139.908,13.336 
	139.908,50.89 135.618,50.89 110.35,22.077 110.35,50.89 105.206,50.89 "/>
<polyline fill="#1E1E1E" points="145.046,50.89 145.046,13.336 149.757,13.336 175.03,42.406 175.03,13.336 179.741,13.336 
	179.741,50.89 175.459,50.89 150.185,22.077 150.185,50.89 145.046,50.89 "/>
<g>
	<line fill="#1E1E1E" x1="236.928" y1="50.892" x2="236.928" y2="13.336"/>
	<rect x="234.144" y="13.336" fill="#1D1D1B" width="5.568" height="37.556"/>
</g>
<polyline fill="#1E1E1E" points="184.452,35.01 184.452,39.818 195.166,39.818 197.303,35.01 184.452,35.01 "/>
<path fill="#1E1E1E" d="M61.511,58.336h2.576c0,0,4.711,0.105,4.711-5.068V13.384h5.571v38.643c0,0,0,5.69-2.576,8.275
	c-2.995,2.589-5.571,3.156-10.282,3.105V58.336"/>
<path fill="#1E1E1E" d="M200.306,50.89l4.711-11.123h15.851l5.14,11.123h5.568l-16.708-37.817h-3.856L194.737,50.89H200.306
	 M207.159,34.905l5.571-13.449l5.994,13.449H207.159z"/>
<path fill="#1E1E1E" d="M249.994,17.939v11.792h4.714c0,0,5.997,0.208,5.997-6.051C260.705,17.216,254.279,17.939,249.994,17.939
	 M244.426,50.89V13.336c0,0,9.426,0,10.282,0c2.568,0,11.568,0.823,11.568,10.393c0,0,0.426,6.882-7.283,9.57l9.849,17.591h-6.423
	l-8.567-16.345h-3.857V50.89H244.426z"/>
<g>
	<path fill="#1E1E1E" d="M274.413,42.716c-2.144,0-3.854,1.76-3.854,4.087s1.711,4.087,3.854,4.087c2.137,0,4.282-1.76,4.282-4.087
		S276.55,42.716,274.413,42.716z M274.413,50.271c-1.712,0-3.426-1.501-3.426-3.468c0-1.964,1.714-3.466,3.426-3.466
		c2.137,0,3.425,1.502,3.425,3.466C277.838,48.77,276.55,50.271,274.413,50.271z"/>
	<path fill="#1E1E1E" d="M276.55,45.767c0-0.877-0.854-1.346-1.711-1.346h-2.138v4.763h0.854v-2.018h0.857l1.282,2.018h0.854
		l-1.283-2.123C275.695,47.01,276.55,46.649,276.55,45.767z M274.413,46.544h-0.857v-1.501h0.857c0.854,0,1.282,0.054,1.282,0.724
		C275.695,46.49,275.267,46.544,274.413,46.544z"/>
</g>
<path fill="#1E1E1E" d="M58.085,16.799v-3.415h0.433l0.854,2.69l0.857-2.69h0.424v3.415h-0.424v-2.898l-0.857,2.898h-0.43
	l-0.424-2.898v2.898H58.085 M56.374,16.799v-2.898h-0.858v-0.517h2.146v0.517h-0.857v2.898H56.374z"/>
</svg>
