<?xml version="1.0" encoding="utf-8"?>
<!-- Generator: Adobe Illustrator 16.0.0, SVG Export Plug-In . SVG Version: 6.00 Build 0)  -->
<!DOCTYPE svg PUBLIC "-//W3C//DTD SVG 1.1//EN" "http://www.w3.org/Graphics/SVG/1.1/DTD/svg11.dtd">
<svg version="1.1" id="KitchenAid" xmlns="http://www.w3.org/2000/svg" xmlns:xlink="http://www.w3.org/1999/xlink" x="0px" y="0px"
	 width="205px" height="35px" viewBox="0 0 205 35" enable-background="new 0 0 205 35" xml:space="preserve">
<polygon fill-rule="evenodd" clip-rule="evenodd" fill="#1E1E1E" points="43.296,26.276 43.296,17.035 35.759,17.035 35.759,26.276 
	43.296,26.276 43.296,26.276 "/>
<path fill-rule="evenodd" clip-rule="evenodd" fill="#1E1E1E" d="M39.438,16.146c2.102,0,3.806-0.966,3.806-2.157
	s-1.704-2.157-3.806-2.157c-2.103,0-3.807,0.966-3.807,2.157S37.335,16.146,39.438,16.146L39.438,16.146L39.438,16.146
	L39.438,16.146z"/>
<polygon fill-rule="evenodd" clip-rule="evenodd" fill="#1E1E1E" points="171.521,26.276 171.521,17.035 163.985,17.035 
	163.985,26.276 171.521,26.276 171.521,26.276 "/>
<path fill-rule="evenodd" clip-rule="evenodd" fill="#1E1E1E" d="M167.664,16.146c2.102,0,3.806-0.966,3.806-2.157
	s-1.704-2.157-3.806-2.157c-2.103,0-3.808,0.966-3.808,2.157S165.562,16.146,167.664,16.146L167.664,16.146L167.664,16.146
	L167.664,16.146z"/>
<path fill-rule="evenodd" clip-rule="evenodd" fill="#1E1E1E" d="M79.011,12.1v14.176h7.716v-4.665l0,0
	c0-1.077,0.897-1.525,1.705-1.525c0.807,0,1.615-0.27,1.615,1.705l0,0v4.485h7.178v-5.922l0,0c0-1.524-0.629-3.707-4.486-3.768
	c-2.827-0.045-5.069,0.762-6.012,1.256l0,0V12.1H79.011L79.011,12.1L79.011,12.1z"/>
<path fill-rule="evenodd" clip-rule="evenodd" fill="#1E1E1E" d="M46.262,17.035v3.051h2.512v2.961l0,0
	c0,1.346,1.077,3.229,4.486,3.229c3.41,0,4.666-0.718,5.832-1.166l0,0v-2.243l0,0c-0.538,0.18-3.14,1.256-3.14-0.897l0,0v-1.884
	h3.14v-3.051h-3.14v-2.961h-7.178v2.961H46.262L46.262,17.035L46.262,17.035z"/>
<path fill-rule="evenodd" clip-rule="evenodd" fill="#1E1E1E" d="M76.499,17.843c-1.705-1.032-3.723-1.436-6.729-1.436
	s-8.434,1.301-8.434,5.069s4.755,5.114,7.806,5.114c3.05,0,6.639-0.673,7.357-1.167l0,0v-2.602l0,0
	c-0.897,0.538-7.357,1.794-7.357-1.211c0-1.615,2.602-1.975,3.364-1.975s3.32,0.359,3.993,0.853l0,0V17.843L76.499,17.843
	L76.499,17.843z"/>
<path fill-rule="evenodd" clip-rule="evenodd" fill="#1E1E1E" d="M118.714,17.035v9.241h7.716v-4.665l0,0
	c0-1.077,0.897-1.705,1.705-1.705c1.48,0,1.615,0.09,1.615,1.885l0,0v4.485h7.178v-5.922l0,0c0-1.794-0.808-3.923-4.666-3.857
	c-2.646,0.044-5.024,0.897-5.832,1.346l0,0v-0.808H118.714L118.714,17.035L118.714,17.035z"/>
<path fill-rule="evenodd" clip-rule="evenodd" fill="#1E1E1E" d="M154.648,10.665h-9.78l0,0c0.449,0.089,1.211,1.301,0.987,1.794
	l0,0l-7.537,13.817h4.217l1.75-3.499h6.505l1.705,3.499h9.735L154.648,10.665L154.648,10.665L154.648,10.665z M145.698,19.951
	l2.041-4.083l1.705,4.083H145.698L145.698,19.951L145.698,19.951z"/>
<path fill-rule="evenodd" clip-rule="evenodd" fill="#1E1E1E" d="M185.513,12.1v5.16l0,0c-0.941-0.449-3.14-0.853-4.53-0.853
	c-2.198,0-6.954,0.763-6.954,4.845c0,4.396,4.666,5.024,6.505,5.024c1.84,0,3.948-0.269,4.979-0.853l0,0v0.853h7.179V12.1H185.513
	L185.513,12.1L185.513,12.1z M185.513,21.746c0,0.358-0.763,0.896-1.569,0.896c-0.769,0-2.558,0.18-2.558-1.525
	c0-1.256,1.885-1.749,2.468-1.749s1.659,0.134,1.659,1.031l0,0V21.746L185.513,21.746L185.513,21.746z"/>
<path fill-rule="evenodd" clip-rule="evenodd" fill="#1E1E1E" d="M109.792,23.854c-1.121,0-2.602-0.225-3.186-1.93l0,0h10.318l0,0
	c0-2.108-0.896-6.011-8.523-6.056c-4.576,0-9.152,1.525-9.197,5.293c-0.045,3.769,4.935,5.114,9.555,5.114
	c4.621,0,6.685-0.718,7.312-1.166l0,0l0.404-2.153l0,0C115.579,23.36,113.201,23.943,109.792,23.854L109.792,23.854L109.792,23.854
	L109.792,23.854z M108.356,18.381c1.032,0,1.436,0.493,1.436,1.436l0,0h-3.141l0,0C106.696,19.054,107.28,18.381,108.356,18.381
	L108.356,18.381L108.356,18.381L108.356,18.381z"/>
<path fill-rule="evenodd" clip-rule="evenodd" fill="#1E1E1E" d="M9.834,10.665v15.611H18v-4.755l0,0
	c0.628,0,1.839-0.404,2.826,1.121l0,0l2.288,3.634h10.049l-4.486-7.088l0,0c-0.628-0.897-0.853-1.794-3.186-2.019l0,0l5.742-6.505
	h-5.787l-4.396,5.518l0,0c-0.494,0.583-0.269,1.122-3.05,1.122l0,0v-6.639H9.834L9.834,10.665L9.834,10.665z"/>
<path fill-rule="evenodd" clip-rule="evenodd" fill="#1E1E1E" d="M196.479,12.816c-0.296-0.294-0.653-0.441-1.072-0.441
	c-0.416,0-0.771,0.147-1.064,0.441c-0.296,0.295-0.443,0.651-0.443,1.067c0,0.42,0.146,0.778,0.439,1.074
	c0.294,0.296,0.649,0.445,1.068,0.445s0.776-0.148,1.072-0.445c0.295-0.297,0.442-0.655,0.442-1.074
	C196.921,13.466,196.773,13.11,196.479,12.816L196.479,12.816L196.479,12.816L196.479,12.816z M196.328,14.811
	c-0.253,0.255-0.56,0.383-0.922,0.383c-0.36,0-0.668-0.128-0.921-0.383c-0.251-0.255-0.377-0.564-0.377-0.927
	c0-0.36,0.127-0.667,0.379-0.921c0.255-0.255,0.562-0.383,0.919-0.383c0.36,0,0.667,0.128,0.922,0.383
	c0.252,0.254,0.379,0.561,0.379,0.921C196.707,14.247,196.58,14.556,196.328,14.811L196.328,14.811L196.328,14.811L196.328,14.811z"
	/>
<path fill-rule="evenodd" clip-rule="evenodd" fill="#1E1E1E" d="M196.08,14.689c-0.007-0.014-0.012-0.042-0.014-0.086
	c-0.003-0.044-0.004-0.085-0.004-0.124l0,0v-0.122l0,0c0-0.084-0.03-0.169-0.091-0.258c-0.061-0.088-0.156-0.142-0.287-0.163
	c0.104-0.017,0.184-0.043,0.241-0.081c0.108-0.07,0.163-0.179,0.163-0.328c0-0.208-0.086-0.349-0.258-0.42
	c-0.096-0.04-0.247-0.06-0.453-0.06l0,0h-0.581v1.661h0.293v-0.655h0.23l0,0c0.155,0,0.264,0.018,0.325,0.054
	c0.104,0.062,0.157,0.189,0.157,0.381l0,0v0.132l0.006,0.053l0,0c0.001,0.007,0.003,0.013,0.004,0.019
	c0.002,0.005,0.003,0.011,0.004,0.016l0,0h0.274L196.08,14.689L196.08,14.689L196.08,14.689z M195.632,13.814
	c-0.062,0.024-0.155,0.037-0.278,0.037l0,0h-0.264v-0.602h0.249l0,0c0.162,0,0.28,0.021,0.354,0.062
	c0.073,0.042,0.11,0.123,0.11,0.243C195.803,13.682,195.745,13.769,195.632,13.814L195.632,13.814L195.632,13.814L195.632,13.814z"
	/>
</svg>
