<?xml version="1.0" encoding="utf-8"?>
<!-- Generator: Adobe Illustrator 16.0.0, SVG Export Plug-In . SVG Version: 6.00 Build 0)  -->
<!DOCTYPE svg PUBLIC "-//W3C//DTD SVG 1.1//EN" "http://www.w3.org/Graphics/SVG/1.1/DTD/svg11.dtd">
<svg version="1.1" id="Sodastream" xmlns="http://www.w3.org/2000/svg" xmlns:xlink="http://www.w3.org/1999/xlink" x="0px" y="0px"
	 width="864.086px" height="181.198px" viewBox="0 0 864.086 181.198" enable-background="new 0 0 864.086 181.198"
	 xml:space="preserve">
<g>
	<g>
		<path fill-rule="evenodd" clip-rule="evenodd" fill="#1E1E1E" d="M425.832,83.066l-14.469-0.204v-15.33l14.673-0.206V43.918
			h17.118v23.614h17.12v15.534h-17.326l-0.2,47.23c0,3.179,0.475,5.386,1.427,6.629l9.985,1.243l5.707-0.207v15.33l-5.302,0.414
			c-10.598,0.551-18.204-1.313-22.82-5.593c-4.079-3.728-6.116-9.185-6.116-16.365l0.203-1.45V83.066z"/>
		<path fill-rule="evenodd" clip-rule="evenodd" fill="#1E1E1E" d="M484.521,66.703v8.078l8.359-3.521l12.226-1.243
			c3.535,0.413,7.133,1.795,10.804,4.144l-6.32,12.221l-8.354-1.452c-4.623,0.139-8.02,1.175-10.191,3.108
			c-2.578,2.347-4.345,5.111-5.297,8.288l-1.426,10.356l-0.206,46.193h-17.119l0.412-86.172H484.521z"/>
		<path fill-rule="evenodd" clip-rule="evenodd" fill="#1E1E1E" d="M671.606,94.254c0.407-9.391,3.598-16.571,9.574-21.544
			c5.846-5.109,14.135-7.595,24.867-7.456c10.869,0,19.089,3.451,24.659,10.356c5.976-6.905,14.196-10.288,24.654-10.15
			c9.374,0,16.781,2.763,22.215,8.285c5.436,5.525,8.155,13.122,8.155,22.788l-0.207,56.964l-17.119-0.207l0.205-56.964
			c0-10.221-4.417-15.33-13.249-15.33c-5.162,0-9.238,1.587-12.224,4.763c-4.212,4.005-6.184,9.737-5.914,17.195l-0.201,50.336
			h-17.119l0.818-56.758c-0.68-6.08-2.856-10.427-6.521-13.051c-2.312-1.795-5.029-2.692-8.152-2.692
			c-6.25,0-10.461,1.104-12.638,3.312c-3.396,3.317-4.89,9.668-4.483,19.06l-1.426,50.335l-16.306-0.207L671.606,94.254z"/>
		<path fill-rule="evenodd" clip-rule="evenodd" fill="#1E1E1E" d="M588.253,109.997l-0.407,8.078l-61.75-0.206
			c0.818,7.042,3.263,12.635,7.336,16.778c3.941,3.728,8.97,5.593,15.084,5.593c12.632,0.275,19.972-4.834,22.006-15.33
			l16.918-0.207c-1.767,9.943-6.048,17.608-12.844,22.994c-6.788,5.384-15.486,8.078-26.08,8.078
			c-11.143,0-20.381-3.521-27.717-10.565c-8.287-7.872-12.297-18.573-12.023-32.108c-0.273-14.636,4.143-26.306,13.244-35.007
			c7.067-6.765,15.966-10.149,26.699-10.149c11.683,0,21.056,3.592,28.123,10.772C584.45,86.312,588.253,96.739,588.253,109.997z
			 M535.062,87.003c-4.071,3.866-6.521,9.391-7.334,16.572h43.206c-0.412-7.181-2.517-12.567-6.321-16.156
			c-3.531-3.592-8.627-5.525-15.282-5.802C543.622,81.617,538.867,83.414,535.062,87.003z"/>
		<path fill-rule="evenodd" clip-rule="evenodd" fill="#1E1E1E" d="M336.979,89.491c0.136-7.735,3.261-13.812,9.372-18.23
			c6.25-4.418,14.675-6.558,25.273-6.422c11.002,0,19.632,2.624,25.88,7.872c6.114,5.247,9.172,12.499,9.172,21.751v5.386h-17.118
			v-5.386c-0.274-3.73-1.087-6.49-2.447-8.287c-2.717-3.866-7.879-5.799-15.487-5.799l-9.782,1.243
			c-5.025,1.52-7.541,4.143-7.541,7.874c0,3.035,1.562,5.315,4.688,6.836c2.444,1.24,7.406,2.691,14.875,4.347l2.243,0.416
			c9.647,1.656,16.781,3.867,21.398,6.629c7.61,4.557,11.413,11.599,11.413,21.129c0,8.146-3.331,14.568-9.988,19.264
			c-6.654,4.696-15.622,6.974-26.898,6.835c-11.277,0-20.378-2.901-27.309-8.701c-6.792-5.938-10.324-13.807-10.598-23.614v-5.593
			h16.916l0.407,5.179c0.272,5.248,2.312,9.459,6.114,12.635c3.668,3.037,8.49,4.557,14.469,4.557
			c13.043,0,19.564-3.59,19.564-10.772c0-3.312-1.632-5.799-4.893-7.456l-15.691-4.35l-2.039-0.414
			c-9.239-1.797-16.1-4.005-20.583-6.629C340.782,105.233,336.979,98.466,336.979,89.491z"/>
		<path fill-rule="evenodd" clip-rule="evenodd" fill="#1E1E1E" d="M628.603,116.21c-6.384,0.552-11.001,1.865-13.857,3.937
			c-2.853,2.071-4.277,5.108-4.277,9.114c0,8.148,5.297,12.222,15.895,12.222c6.794,0,12.295-1.656,16.508-4.973
			c3.664-3.034,5.636-6.765,5.908-11.183l0.411-13.051C646.467,114.209,639.611,115.52,628.603,116.21z M595.793,101.09l0.406-5.386
			c0.407-9.53,3.805-16.917,10.192-22.165c6.249-5.248,14.875-7.872,25.88-7.872c10.599,0.139,18.816,2.417,24.66,6.836
			c5.708,4.282,8.559,10.427,8.559,18.434l-0.612,33.353c-0.272,8.56-3.938,15.811-11.004,21.75
			c-7.607,6.629-17.594,9.875-29.956,9.736c-10.326,0-18.273-2.349-23.848-7.045c-5.568-4.557-8.354-11.115-8.354-19.677
			c0.272-16.71,11.823-25.892,34.646-27.551c12.229-0.83,19.291-1.865,21.196-3.108c0.947-0.552,1.425-3.105,1.425-7.665
			c-0.138-1.656-1.018-3.312-2.65-4.971c-2.991-3.176-7.741-4.834-14.264-4.971c-12.228,0-18.684,5.178-19.363,15.537l-0.2,4.763
			H595.793z"/>
		<path fill-rule="evenodd" clip-rule="evenodd" fill="#3D3D3D" d="M190.248,29.625c4.89,0,8.831,1.724,11.821,5.177
			c2.714,3.175,4.076,7.183,4.076,12.015c0,4.834-1.362,8.837-4.076,12.015c-2.991,3.453-6.999,5.177-12.026,5.177
			c-4.889,0-8.829-1.725-11.819-5.177c-2.717-3.314-4.077-7.39-4.077-12.222c0-4.696,1.359-8.633,4.077-11.808
			C181.349,31.212,185.359,29.486,190.248,29.625z M190.248,55.724c2.309,0,4.143-0.829,5.502-2.485
			c1.36-1.658,2.039-3.73,2.039-6.212c0-2.624-0.679-4.767-2.039-6.425c-1.359-1.656-3.193-2.485-5.502-2.485
			c-2.311,0-4.144,0.829-5.502,2.485c-1.359,1.658-2.038,3.728-2.038,6.215c0,2.624,0.679,4.764,2.038,6.422
			C186.104,54.895,187.937,55.724,190.248,55.724z"/>
		<path fill-rule="evenodd" clip-rule="evenodd" fill="#3D3D3D" d="M66.14,64.009c9.918,0,17.729,2.142,23.436,6.421
			c6.521,4.834,9.782,12.016,9.782,21.542v2.281H88.352c0-7.319-1.969-12.637-5.911-15.952c-3.531-3.037-8.964-4.557-16.301-4.557
			c-6.249,0-11.345,1.036-15.285,3.107c-4.347,2.349-6.591,5.661-6.725,9.944c0,4.97,3.331,8.768,9.986,11.392l16.097,3.938
			c10.192,1.794,17.459,4.073,21.807,6.835c6.387,4.142,9.579,10.494,9.579,19.058c-0.134,8.7-4.21,15.191-12.227,19.473
			c-6.249,3.176-13.926,4.764-23.029,4.764c-10.868-0.139-19.428-2.901-25.679-8.288c-6.792-5.799-10.256-14.154-10.393-25.065
			h10.801c0.406,7.596,2.854,13.464,7.335,17.607c4.35,3.869,10.328,5.802,17.935,5.802c6.794,0,12.297-0.967,16.508-2.901
			c5.162-2.485,7.811-6.352,7.949-11.599c0-5.387-3.33-9.392-9.989-12.016l-16.913-3.934c-9.646-2.072-16.437-4.282-20.38-6.629
			c-6.794-4.144-10.189-10.359-10.189-18.644c0.137-8.148,3.872-14.154,11.208-18.023C50.243,65.529,57.443,64.009,66.14,64.009z"/>
		<path fill-rule="evenodd" clip-rule="evenodd" fill="#3D3D3D" d="M96.912,81.41c0-12.429,3.534-22.717,10.596-30.865
			c7.61-8.698,17.732-13.049,30.366-13.049c12.5,0.136,22.486,4.625,29.958,13.465c6.93,8.146,10.393,18.434,10.393,30.865
			c-0.136,12.428-3.737,22.717-10.802,30.863c-7.471,8.837-17.457,13.19-29.957,13.051c-12.636,0-22.688-4.419-30.161-13.258
			C100.24,104.198,96.775,93.839,96.912,81.41z M115.458,57.589c-5.163,6.49-7.744,14.5-7.744,24.028
			c-0.137,9.53,2.375,17.537,7.541,24.03c5.433,6.767,12.837,10.221,22.212,10.357c9.237,0,16.578-3.383,22.009-10.15
			c5.163-6.352,7.814-14.364,7.947-24.027c0-9.668-2.58-17.677-7.743-24.03c-5.436-6.907-12.77-10.359-22.009-10.359
			C128.431,47.301,121.027,50.683,115.458,57.589z"/>
		<path fill-rule="evenodd" clip-rule="evenodd" fill="#3D3D3D" d="M256.683,92.183c0.545-9.805,3.944-17.192,10.192-22.165
			c6.112-4.973,14.604-7.456,25.472-7.456c21.874,0.275,32.813,8.353,32.813,24.235l-0.817,36.249
			c-0.273,8.287-3.94,15.4-11.005,21.338c-7.607,6.626-17.593,9.873-29.956,9.734c-9.375,0-16.71-1.863-22.009-5.59
			c-6.249-4.421-9.375-11.189-9.375-20.303c0-16.159,11.413-25.063,34.236-26.722c13.722-0.83,22.009-2.14,24.863-3.937
			c1.223-0.688,2.038-1.792,2.447-3.312c0.408-1.381,0.61-3.937,0.61-7.665c0-2.487-1.291-5.111-3.873-7.871
			c-4.076-4.005-10.053-6.008-17.933-6.008c-15.488-0.137-23.708,7.18-24.657,21.958h-11.007V92.183z M285.014,111.446
			c-7.611,0.83-13.113,2.556-16.51,5.18c-3.534,2.624-5.367,6.49-5.5,11.599c0,4.557,1.629,8.285,4.89,11.186
			c3.667,3.039,8.899,4.628,15.692,4.764c11.549,0,20.039-3.796,25.475-11.393c3.258-4.696,4.89-9.528,4.89-14.5v-10.979
			c-3.126,1.384-7.881,2.417-14.267,3.108L285.014,111.446z"/>
		<path fill-rule="evenodd" clip-rule="evenodd" fill="#3D3D3D" d="M180.469,77.683c7.062-8.701,17.047-12.98,29.954-12.844
			c13.179,0,22.892,4.075,29.144,12.221V35.631h10.8v79.543l-0.406,3.728c-2.038,12.708-7.473,21.96-16.303,27.76
			c-6.66,4.28-14.88,6.42-24.659,6.42c-12.636-0.139-22.351-4.696-29.146-13.671c-6.111-7.872-9.169-18.021-9.169-30.45
			C170.821,95.979,174.082,85.554,180.469,77.683z M181.485,108.961c0,9.666,2.378,17.606,7.135,23.821
			c5.161,6.906,12.43,10.356,21.803,10.356c9.104,0.139,16.304-3.312,21.604-10.356c4.755-6.215,7.133-14.084,7.133-23.614
			c0-9.53-2.31-17.331-6.929-23.408c-5.164-6.628-12.431-9.943-21.807-9.943c-9.646-0.139-16.98,3.037-22.01,9.53
			C183.931,91.147,181.621,99.018,181.485,108.961z"/>
		<path fill-rule="evenodd" clip-rule="evenodd" fill="#3D3D3D" d="M256.683,92.183c0.545-9.805,3.944-17.192,10.192-22.165
			c6.112-4.973,14.604-7.456,25.472-7.456c21.874,0.275,32.813,8.353,32.813,24.235l-0.817,36.249
			c-0.273,8.287-3.94,15.4-11.005,21.338c-7.607,6.626-17.593,9.873-29.956,9.734c-9.375,0-16.71-1.863-22.009-5.59
			c-6.249-4.421-9.375-11.189-9.375-20.303c0-16.159,11.413-25.063,34.236-26.722c13.722-0.83,22.009-2.14,24.863-3.937
			c1.223-0.688,2.038-1.792,2.447-3.312c0.408-1.381,0.61-3.937,0.61-7.665c0-2.487-1.291-5.111-3.873-7.871
			c-4.076-4.005-10.053-6.008-17.933-6.008c-15.488-0.137-23.708,7.18-24.657,21.958h-11.007V92.183z M285.014,111.446
			c-7.611,0.83-13.113,2.556-16.51,5.18c-3.534,2.624-5.367,6.49-5.5,11.599c0,4.557,1.629,8.285,4.89,11.186
			c3.667,3.039,8.899,4.628,15.692,4.764c11.549,0,20.039-3.796,25.475-11.393c3.258-4.696,4.89-9.528,4.89-14.5v-10.979
			c-3.126,1.384-7.881,2.417-14.267,3.108L285.014,111.446z"/>
		<path fill-rule="evenodd" clip-rule="evenodd" fill="#1E1E1E" d="M798.362,76.026h17.53v5.177h-5.708v16.985h-5.909V81.204h-5.913
			V76.026z M835.864,98.188h-5.304l-4.889-15.122h-0.201v15.122h-5.508V76.026h8.968l4.281,13.464l4.484-13.464h8.966v22.162h-5.708
			V83.066L835.864,98.188z"/>
	</g>
</g>
</svg>
