<?xml version="1.0" encoding="utf-8"?>
<!-- Generator: Adobe Illustrator 16.0.0, SVG Export Plug-In . SVG Version: 6.00 Build 0)  -->
<!DOCTYPE svg PUBLIC "-//W3C//DTD SVG 1.1//EN" "http://www.w3.org/Graphics/SVG/1.1/DTD/svg11.dtd">
<svg version="1.1" id="Danby" xmlns="http://www.w3.org/2000/svg" xmlns:xlink="http://www.w3.org/1999/xlink" x="0px" y="0px"
	 width="236px" height="76px" viewBox="0 0 236 76" enable-background="new 0 0 236 76" xml:space="preserve">
<path fill="#1E1E1E" d="M18.005,35.922l0.002,21.014h30.261c27.262-3.668,22.982-38.475-0.276-41.241H18l0.005,20.286h17.705
	L35.7,26.369c17.354-1.874,18.64,21.406,0,19.753l0.026-10.2h-0.017H18.062"/>
<path fill="#1E1E1E" d="M125.038,38.357v18.64h14.685V32.349c0,0-1.977-9.961-12.483-10.294c-5.436-0.173-11.433,3.854-11.433,3.854
	v-2.013h-13.686v33.101h14.597l0.004-19.292c0,0,0.113-3.679,4.311-3.684C125.292,34.021,125.038,38.357,125.038,38.357"/>
<path fill="#1E1E1E" d="M193.634,65.566c0,0,2.987-1.619,6.691-9.634c1.571-3.403,14.094-31.061,14.094-31.061h-14.763
	c0,0-2.653,11.101-4.217,11.101c-1.381-0.004-5.271-11.074-5.271-11.074h-14.836l12.164,27.464c0,0,2.308,5.987-2.552,5.244
	c-0.993-0.149-2.416-0.345-6.038-1.668l-2.591,8.458C176.315,64.397,189.665,70.109,193.634,65.566"/>
<path fill="#1E1E1E" d="M141.649,56.997h13.883l0.802-0.808c0,0,1.311,1.644,8.496,1.644c0,0,13.729,1.271,14.477-17.715
	c0.633-16.031-15.646-16.217-15.646-16.217c-4.543,0-8.305,1.864-8.305,1.864v-9.147h-13.707v22.008h13.697v-2.627
	c0,0,10.839-4.965,10.438,5.724c-0.318,8.377-10.438,4.227-10.438,4.227v-7.323h-13.722L141.649,56.997"/>
<path fill="#1E1E1E" d="M85.598,49.557c0,0-2.876,2.127-5.577-0.059c0,0-2.881-3.334,1.262-6.328c0,0,0.978-0.748,4.315-1.036v3.624
	h14.605l-0.053-12.719c0,0-0.363-11.031-22.898-10.4v0.074c-1.856,0.103-2.716,0.297-6.3,1.267l-1.834,0.631L66.98,34.726
	c3.409-2.211,7.592-2.747,10.277-2.812v-0.005c0.924,0.01,2.412,0.005,2.412,0.005c4.598,0.518,5.665,2.783,5.298,2.455
	c0,0,0.817,2.456-1.557,2.302c0,0-4.137-0.672-9.777,1.035c-14.049,4.253-8.027,20.585,3.684,19.844
	c-0.029,0.004,0.68-0.021,3.218-0.23c1.497-0.117,5.929-1.32,5.929-1.32l0.068,0.938h13.619l0.053-11.12H85.598V49.557z"/>
<path fill="#1E1E1E" d="M221.071,29.604c0.396,0,0.715-0.083,0.943-0.252c0.232-0.168,0.35-0.472,0.35-0.908
	c0-0.474-0.161-0.797-0.488-0.965c-0.172-0.091-0.403-0.134-0.694-0.134h-2.077v2.259H221.071 M218.222,26.576h2.942
	c0.484,0,0.883,0.074,1.196,0.221c0.599,0.281,0.897,0.802,0.897,1.565c0,0.397-0.081,0.719-0.241,0.971
	c-0.16,0.25-0.385,0.453-0.672,0.604c0.253,0.108,0.443,0.247,0.57,0.416c0.13,0.171,0.2,0.448,0.216,0.832l0.028,0.885
	c0.01,0.254,0.03,0.44,0.062,0.562c0.055,0.211,0.15,0.347,0.284,0.406v0.142h-1.076c-0.032-0.054-0.054-0.127-0.071-0.215
	c-0.017-0.093-0.028-0.267-0.04-0.524l-0.05-1.1c-0.021-0.431-0.169-0.719-0.456-0.866c-0.163-0.081-0.417-0.122-0.771-0.122h-1.937
	v2.828h-0.883V26.576z"/>
<path fill="#1E1E1E" d="M220.608,35.617c-3.194,0-5.791-2.598-5.791-5.792s2.597-5.793,5.791-5.793c1.16,0,2.279,0.344,3.241,0.993
	l-0.018,0.026c1.634,1.034,2.57,2.772,2.57,4.773C226.402,33.019,223.803,35.617,220.608,35.617z M220.608,25.013
	c-2.651,0-4.808,2.158-4.808,4.812c0,2.653,2.156,4.812,4.808,4.812c2.654,0,4.812-2.159,4.812-4.812
	c0-0.788-0.205-2.748-2.128-3.952l0.19-0.305l-0.182,0.271C222.502,25.299,221.57,25.013,220.608,25.013z"/>
</svg>
