<?xml version="1.0" encoding="utf-8"?>
<!-- Generator: Adobe Illustrator 16.0.0, SVG Export Plug-In . SVG Version: 6.00 Build 0)  -->
<!DOCTYPE svg PUBLIC "-//W3C//DTD SVG 1.1//EN" "http://www.w3.org/Graphics/SVG/1.1/DTD/svg11.dtd">
<svg version="1.1" id="Inglis" xmlns="http://www.w3.org/2000/svg" xmlns:xlink="http://www.w3.org/1999/xlink" x="0px" y="0px"
	 width="609px" height="257px" viewBox="0 0 609 257" enable-background="new 0 0 609 257" xml:space="preserve">
<polyline fill="#1E1E1E" points="72.668,150.457 118.189,11.918 160.557,11.918 115.036,150.457 72.668,150.457 "/>
<path fill="#1E1E1E" d="M572.375,59.09c-0.586-0.499-1.454-0.461-1.996,0.071c-0.543,0.539-0.583,1.403-0.088,1.99
	c11.146,13.201,16.8,27.015,16.8,41.025c0,68.84-135.172,124.85-301.315,124.85c-114.818,0-221.406-27.798-271.514-70.82
	c-0.583-0.495-1.458-0.468-1.997,0.071c-0.546,0.546-0.583,1.407-0.082,1.994c42.863,50.758,158.088,84.854,286.745,84.854
	c122.996,0,233.132-30.68,280.609-78.149c15.689-15.692,23.646-32.401,23.646-49.632C603.184,95.569,592.824,76.629,572.375,59.09"
	/>
<path fill="#1E1E1E" d="M471.181,111.234c-2.827,5.8,3.485,7.248,3.485,7.248c5.35,0,6.59-3.143,6.861-10.621
	c0.224-5.912-0.325-11.346-0.325-11.346s-0.76-2.658-2.068,0.237C477.825,99.651,471.181,111.234,471.181,111.234 M382.75,106.895
	c-2.19,6.519-2.19,11.709,1.851,11.709c5.336,0,7.296-4.949,7.296-4.949l19.17-58.291h39.106l-17.112,52.012
	c-1.848,5.671-2.288,11.106,1.312,11.228c4.469,0.149,8.611-3.861,8.611-3.861c16.875-16.781,33.526-59.379,33.526-59.379h47.393
	c-4.031,12.905-3.926,30.167-3.926,30.167c0,13.76,2.726,13.885,2.841,27.042c0.254,30.408-15.255,41.751-43.575,41.751
	c-28.319,0-34.523-13.275-34.523-13.275c-7.621,15.079-35.507,13.275-35.507,13.275c-21.997,0-24.723-11.712-24.723-11.712
	c-10.784,13.278-29.191,11.712-29.191,11.712c-28.869,0-18.401-27.038-18.401-27.038l35.935-109.578h39.106L382.75,106.895"/>
<path fill="#1E1E1E" d="M439.39,50.906c12.801-2.475,23.174-12.028,23.174-21.319c0-9.306-10.373-14.849-23.174-12.363
	c-12.794,2.478-23.167,12.024-23.167,21.33C416.223,47.862,426.596,53.388,439.39,50.906"/>
<path fill="#1E1E1E" d="M313.259,55.364c-2.011,9.804-3.4,9.522-3.4,9.522c-2.583,1.135-3.709-3.119-3.709-3.119
	c-2.081-6.644-13.153-6.403-13.153-6.403c-0.187,0-26.292-2.237-39.859,17.38c-10.017,14.475-13.675,27.408-14.597,30.164
	c-1.519,4.593-2.319,6.265-5.438,6.275c-1.993,0.01-2.183-3.132-1.309-7.234l8.055-24.618c0,0,9.149-21.967-16.116-21.967
	c0,0-18.957-1.329-30.062,9.167c0,0-3.695,3.379-4.8,0.729c0,0-0.865-0.729,2.075-9.895h-35.178l-31.259,95.092h39.1l15.58-47.422
	c0,0,3.594-13.879,12.306-13.879c0,0,3.916,0.963,2.828,4.831l-8.499,26.069c0,0-12.627,34.269,17.869,34.269
	c0,0,14.157,1.448,30.056-13.522c0,0,4.671,14.031,23.628,14.031c0,0,15.024,1.312,22.855-7.018c0,0,1.485-1.207,2.861-0.569
	c0.898,0.394,0.088,2.038-0.563,2.851c-6.224,7.773-15.194,11.929-22.476,11.929c-5.892,0-21.808,0.481-28.733-6.397l-13.96,29.273
	l4.034,1.465c11.688,4.582,22.774,6.871,36.185,6.871c30.246,0,55.833-16.838,66.634-50.508l29.249-87.366H313.259 M294.759,105.692
	c-4.658,8.336-12,12.621-16.394,9.546c-4.394-3.084-4.184-12.333,0.481-20.682c4.658-8.326,12.001-12.604,16.394-9.529
	C299.634,88.098,299.424,97.356,294.759,105.692"/>
<polyline fill="#1E1E1E" points="122.45,189.96 131.42,164.501 137.396,164.501 133.952,174.264 138.088,174.264 141.539,164.501 
	147.519,164.501 138.542,189.96 132.576,189.96 136.305,179.366 132.159,179.366 128.427,189.96 122.45,189.96 "/>
<path fill="#1E1E1E" d="M158.048,171.898c0.556-1.573,1.071-3.435-0.895-3.435c-1.898,0-2.793,1.861-3.349,3.435l-3.682,10.455
	c-0.515,1.453-1.041,3.633,0.895,3.633s2.834-2.18,3.349-3.633L158.048,171.898 M160.516,181.838
	c-2.014,5.746-5.071,8.732-11.123,8.732c-6.031,0-7.088-2.986-5.061-8.732l3.647-10.357c1.708-4.885,5.587-7.6,10.821-7.6
	c5.234,0,7.092,2.715,5.366,7.6L160.516,181.838"/>
<polyline fill="#1E1E1E" points="160.828,189.96 169.791,164.501 178.219,164.501 176.008,179.532 176.076,179.532 184.568,164.501 
	192.921,164.501 183.955,189.96 178.246,189.96 185.9,169.993 185.822,169.993 174.581,189.96 170.124,189.96 173.059,169.993 
	172.984,169.993 166.5,189.96 160.828,189.96 "/>
<polyline fill="#1E1E1E" points="187.304,189.96 196.28,164.501 209.976,164.501 208.179,169.586 200.471,169.586 198.816,174.264 
	206.284,174.264 204.498,179.366 197.023,179.366 195.084,184.865 203.196,184.865 201.413,189.96 187.304,189.96 "/>
<path fill="#1E1E1E" d="M332.327,169.098h-0.061l-5.764,11.414h3.472L332.327,169.098 M315.812,189.96l14.536-25.459h7.207
	l-3.431,25.459h-6.055l0.892-4.956h-4.668l-2.468,4.956H315.812"/>
<path fill="#1E1E1E" d="M346.755,175.454c1.146-0.037,2.384,0.115,3.604-0.638c0.841-0.684,1.343-1.708,1.651-2.59
	c0.353-0.979,0.772-2.478-0.075-2.945c-0.515-0.203-1.321-0.203-2.281-0.203h-0.641L346.755,175.454 M335.684,189.96l8.966-25.459
	h7.093c2.314,0,5.569,0.187,6.572,2.095c0.841,1.563,0.441,3.469-0.291,5.533c-0.966,2.746-2.698,5.841-5.861,7.092
	c-2.431,1.023-4.742,0.719-7.011,0.827l-3.488,9.912H335.684"/>
<path fill="#1E1E1E" d="M365.143,175.454c1.139-0.037,2.373,0.115,3.586-0.638c0.848-0.684,1.343-1.708,1.648-2.59
	c0.352-0.979,0.786-2.478-0.082-2.945c-0.495-0.203-1.315-0.203-2.265-0.203h-0.644L365.143,175.454 M354.047,189.96l8.977-25.459
	h7.096c2.312,0,5.573,0.187,6.556,2.095c0.848,1.563,0.451,3.469-0.281,5.533c-0.966,2.746-2.698,5.841-5.857,7.092
	c-2.438,1.023-4.743,0.719-7.015,0.827l-3.491,9.912H354.047"/>
<polyline fill="#1E1E1E" points="371.875,189.96 380.852,164.501 386.824,164.501 379.658,184.865 386.953,184.865 385.167,189.96 
	371.875,189.96 "/>
<polyline fill="#1E1E1E" points="386.92,189.96 395.893,164.501 401.876,164.501 392.906,189.96 386.92,189.96 "/>
<path fill="#1E1E1E" d="M411.619,169.098h-0.068l-5.749,11.414h3.461L411.619,169.098 M395.116,189.96l14.54-25.459h7.19
	l-3.435,25.459h-6.044l0.895-4.956h-4.695l-2.45,4.956H395.116"/>
<polyline fill="#1E1E1E" points="425.538,175.705 425.437,175.763 420.982,189.96 415.308,189.96 424.284,164.501 430.427,164.501 
	430.047,178.726 430.142,178.726 434.569,164.501 440.247,164.501 431.281,189.96 425.169,189.96 425.538,175.705 "/>
<path fill="#1E1E1E" d="M450.258,173.39l0.576-1.627c0.76-2.177,0.37-3.299-0.742-3.299c-1.857-0.034-2.668,0.987-3.24,2.647
	l-4.476,12.602c-0.505,1.42-0.227,2.273,1.339,2.273c2.038,0,2.946-2.098,3.492-3.664l0.82-2.315h5.974l-1.099,3.129
	c-1.546,4.384-5.14,7.435-11.255,7.435c-5.495,0-6.604-2.922-4.773-8.123L440.556,172c1.953-5.539,5.417-8.119,10.875-8.119
	c5.105,0,7.384,2.173,5.553,7.366l-0.745,2.143H450.258"/>
<polyline fill="#1E1E1E" points="452.841,189.96 461.805,164.501 475.503,164.501 473.703,169.586 466.008,169.586 464.347,174.264 
	471.818,174.264 470.021,179.366 462.55,179.366 460.618,184.865 468.727,184.865 466.937,189.96 452.841,189.96 "/>
<path fill="#1E1E1E" d="M476.836,181.438l-0.628,1.79c-0.525,1.464-0.501,2.759,1.4,2.759c1.396,0,2.447-1.25,2.908-2.549
	c0.746-2.129-0.729-2.956-1.959-3.905c-1.468-1.058-2.675-2.034-3.343-3.322c-0.634-1.298-0.732-2.864,0.055-5.099
	c1.688-4.789,5.444-7.23,10.062-7.23c5.193,0,6.631,3.465,4.671,8.248h-5.512c0.461-1.502,1.251-3.529-0.678-3.665
	c-1.187-0.102-2.129,0.577-2.679,1.698c-0.698,1.529-0.183,2.306,0.712,3.123c1.735,1.434,3.356,2.305,4.299,3.606
	c0.938,1.281,1.159,2.979,0.074,6.071c-1.729,4.885-5.4,7.607-10.353,7.607c-5.476,0-6.706-3.051-5.52-6.414l0.942-2.719H476.836"/>
<path fill="#1E1E1E" d="M537.068,63.819h1.092v-2.451h0.861c0.583,0,0.986,0.071,1.214,0.207c0.393,0.23,0.586,0.705,0.586,1.42
	v0.501l0.023,0.193c0.004,0.027,0.014,0.054,0.014,0.068c0.021,0.023,0.021,0.044,0.021,0.061h1.018l-0.034-0.075
	c-0.024-0.054-0.041-0.159-0.048-0.322c-0.014-0.163-0.014-0.318-0.014-0.461v-0.454c0-0.315-0.115-0.637-0.339-0.973
	c-0.23-0.318-0.583-0.525-1.074-0.6c0.39-0.061,0.681-0.163,0.898-0.305c0.417-0.258,0.61-0.678,0.61-1.221
	c0-0.779-0.319-1.312-0.963-1.576c-0.356-0.149-0.926-0.224-1.695-0.224h-2.17V63.819 M540.184,60.473
	c-0.22,0.085-0.569,0.132-1.033,0.132h-0.99v-2.248h0.929c0.617,0,1.051,0.082,1.329,0.234c0.268,0.146,0.403,0.461,0.403,0.905
	C540.821,59.978,540.614,60.293,540.184,60.473 M543.354,56.74c-1.105-1.095-2.438-1.647-4.014-1.647
	c-1.553,0-2.881,0.553-3.979,1.647c-1.112,1.105-1.647,2.434-1.647,3.99c0,1.576,0.535,2.916,1.644,4.01
	c1.089,1.112,2.424,1.665,3.983,1.665c1.576,0,2.908-0.553,4.014-1.665c1.105-1.102,1.654-2.448,1.654-4.01
	C545.008,59.171,544.459,57.842,543.354,56.74 M542.791,57.283c0.949,0.956,1.42,2.099,1.42,3.448c0,1.359-0.471,2.519-1.42,3.468
	c-0.942,0.953-2.095,1.431-3.451,1.431c-1.343,0-2.495-0.478-3.44-1.431c-0.926-0.949-1.407-2.108-1.407-3.468
	c0-1.349,0.481-2.492,1.417-3.448c0.949-0.946,2.102-1.431,3.431-1.431C540.696,55.852,541.838,56.337,542.791,57.283"/>
</svg>
