<?xml version="1.0" encoding="utf-8"?>
<!-- Generator: Adobe Illustrator 16.0.0, SVG Export Plug-In . SVG Version: 6.00 Build 0)  -->
<!DOCTYPE svg PUBLIC "-//W3C//DTD SVG 1.1//EN" "http://www.w3.org/Graphics/SVG/1.1/DTD/svg11.dtd">
<svg version="1.1" id="Whirlpool" xmlns="http://www.w3.org/2000/svg" xmlns:xlink="http://www.w3.org/1999/xlink" x="0px" y="0px"
	 width="246px" height="108px" viewBox="0 0 246 108" enable-background="new 0 0 246 108" xml:space="preserve">
<path fill="#D9D9D9" d="M235.809,30.483c0-0.872-0.531-1.233-1.567-1.233h-1.63v4.295h0.706v-1.84h0.665l1.109,1.84h0.799
	l-1.206-1.891C235.33,31.584,235.809,31.262,235.809,30.483z M233.317,31.105V29.85h0.853c0.422,0,0.932,0.065,0.932,0.583
	c0,0.62-0.467,0.672-0.996,0.672H233.317z"/>
<path fill="#D9D9D9" d="M234.084,27.441c-2.053,0-3.818,1.546-3.818,3.883c0,2.21,1.59,3.879,3.818,3.879
	c2.036,0,3.797-1.545,3.797-3.879C237.881,28.987,236.12,27.441,234.084,27.441z M234.084,34.531c-1.846,0-2.988-1.444-2.988-3.206
	c0-1.89,1.309-3.208,2.988-3.208c1.664,0,2.969,1.319,2.969,3.208C237.053,33.223,235.748,34.531,234.084,34.531z"/>
<polygon fill="#D9D9D9" points="51.706,56.846 43.856,28.002 37.655,28.002 29.861,56.846 22.126,28.002 15.87,28.002 
	26.731,67.713 33.049,67.713 40.841,38.868 48.521,67.713 54.834,67.713 65.701,28.002 59.443,28.002 "/>
<path fill="#D9D9D9" d="M85.266,67.713h6.255V50.361c0-8.705-3.414-10.981-8.477-10.981c-2.842,0-5.174,0.512-8.077,1.595H74.74
	l0.113-3.643v-9.727l-6.257,0.511v39.597h6.257V45.809c1.595-0.454,3.13-0.854,4.95-0.854c2.901,0,5.462,0.683,5.462,5.917V67.713z"
	/>
<rect x="96.98" y="39.777" fill="#D9D9D9" width="6.258" height="27.936"/>
<path fill="#D9D9D9" d="M100.109,36.538c3.071,0,3.756-1.935,3.756-4.04c0-2.104-0.513-3.984-3.756-3.984
	c-3.129,0-3.697,1.88-3.697,3.984C96.413,34.603,97.04,36.538,100.109,36.538z"/>
<path fill="#D9D9D9" d="M114.787,46.378c1.647-0.74,3.011-1.138,4.721-1.138c1.194,0,2.388,0.17,3.525,0.343v-6.145
	c-0.454-0.058-0.911-0.058-1.306-0.058c-3.413,0-6.034,1.251-7.681,2.674h-0.397l-0.853-2.277h-4.267v27.936h6.258V46.378z"/>
<polygon fill="#D9D9D9" points="131.963,27.605 125.707,28.116 125.707,67.713 131.963,67.713 "/>
<path fill="#D9D9D9" d="M204.489,39.38c-8.876,0-12.573,5.234-12.573,14.507c0,8.701,3.24,14.394,12.455,14.394
	c9.218,0,12.402-5.692,12.402-14.394C216.773,44.614,213.361,39.38,204.489,39.38z M204.26,63.328c-5.004,0-6.029-4.381-6.029-9.441
	c0-5.458,1.254-9.615,6.314-9.615c5.004,0,5.86,4.321,5.86,9.615C210.405,59.177,209.266,63.328,204.26,63.328z"/>
<polygon fill="#D9D9D9" points="220.926,67.713 227.18,67.713 227.18,27.605 220.926,28.116 "/>
<path fill="#D9D9D9" d="M177.963,9.346c-5.219-5.534-24.713,4.982-44.604,21.401v2.134c19.48-16.262,37.818-25.83,42.045-21.342
	c2.15,2.276,0.259,9.408-4.604,17.681c-0.701,0.327-1.476,0.981-2.19,2.016c-2.778,3.992-6.157,8.373-9.906,12.825
	c-1.75-3.224-4.559-4.681-7.911-4.681c-3.132,0-6.317,1.422-8.192,2.446h-0.283l-0.514-2.046h-4.721v26.304
	c-22.953,20.351-43.9,32.095-48.45,27.272c-2.833-3.004,1.815-12.719,10.292-24.249h-2.349
	c-8.99,12.257-13.859,22.835-10.261,26.657c5.518,5.846,28.231-6.062,50.867-25.303c-0.034,0.028-0.064,0.059-0.1,0.085v10.475
	l6.255-0.679V67.539h0.174c1.761,0.341,3.698,0.57,5.46,0.57c7.282,0,11.664-4.836,11.664-14.622c0-1.873-0.152-3.541-0.427-5.014
	c-0.397,0.428-0.829,0.869-1.243,1.304c5.359-5.634,9.708-10.8,12.869-15.598c1.549-2.352,1.613-4.016,0.965-4.758
	C178.875,19.967,181.06,12.631,177.963,9.346z M143.068,60.621c0.213-5.979,0.213-8.887,0.213-14.416
	c1.534-0.51,3.07-0.795,4.664-0.795c3.228,0,5.319,0.93,6.064,4.047c-3.322,3.673-6.855,7.314-10.499,10.751
	C143.362,60.349,143.217,60.479,143.068,60.621z M154.24,54.621c-0.432,6.338-2.852,8.029-6.352,8.029
	c-0.705,0-1.332-0.012-1.941-0.025c-0.002,0.004-0.004,0.004-0.008,0.008c0.115-0.105,0.228-0.211,0.343-0.319
	c2.845-2.679,5.517-5.259,8.015-7.747C154.278,54.584,154.26,54.602,154.24,54.621z"/>
<path fill="#C6C6C5" d="M72.197,18.89c0.689-0.402,1.243-0.822,1.648-1.252c0.414-0.429,0.676-0.87,0.783-1.319
	c0.112-0.451,0.068-0.897-0.129-1.351c-0.201-0.449-0.552-0.898-1.062-1.337c-0.506-0.438-1.169-0.866-1.978-1.283
	c-0.805-0.414-1.76-0.81-2.85-1.188c-1.089-0.373-2.31-0.729-3.656-1.054c-1.342-0.325-2.802-0.621-4.357-0.881
	c-1.562-0.264-3.219-0.492-4.95-0.685c-1.731-0.191-3.537-0.342-5.392-0.456c-1.853-0.114-3.756-0.183-5.678-0.211
	c-1.919-0.027-3.86-0.014-5.793,0.042c-1.928,0.06-3.847,0.162-5.727,0.308C31.182,8.37,29.34,8.558,27.573,8.79
	c-1.771,0.223-3.468,0.492-5.069,0.803c-1.602,0.303-3.104,0.652-4.486,1.029c-1.38,0.375-2.639,0.784-3.754,1.221
	c-1.114,0.434-2.082,0.903-2.889,1.388c-0.805,0.48-1.449,0.986-1.916,1.506c-0.471,0.515-0.764,1.047-0.874,1.583
	c-0.111,0.537-0.037,1.076,0.222,1.611c0.257,0.537,0.701,1.073,1.328,1.596c0.623,0.521,1.434,1.032,2.414,1.525
	c0.981,0.488,2.133,0.961,3.444,1.399c1.314,0.446,2.781,0.86,4.388,1.244c1.606,0.38,3.351,0.728,5.212,1.035
	c1.858,0.306,3.832,0.572,5.883,0.792c2.054,0.223,4.188,0.398,6.393,0.526c0.318,0.018,0.636,0.04,0.956,0.055
	c0.3,0.015,0.568-0.016,0.844-0.144c0.246-0.107,0.5-0.312,0.526-0.593c0.026-0.293-0.214-0.513-0.454-0.634
	c-0.27-0.135-0.536-0.187-0.831-0.206c-1.122-0.071-2.231-0.157-3.319-0.258c-1.396-0.13-2.758-0.285-4.072-0.468
	c-1.307-0.181-2.566-0.387-3.763-0.615c-1.182-0.22-2.306-0.468-3.357-0.734c-0.861-0.216-1.672-0.448-2.425-0.691
	c-2.059-0.654-3.709-1.4-4.866-2.191c-0.503-0.346-0.915-0.703-1.226-1.06c-0.308-0.358-0.521-0.72-0.632-1.087
	c-0.115-0.362-0.128-0.727-0.043-1.089c0.086-0.358,0.265-0.715,0.542-1.069c0.277-0.345,0.646-0.695,1.11-1.032
	c0.453-0.331,1-0.652,1.632-0.964c0.625-0.309,1.339-0.607,2.127-0.894c0.431-0.154,0.884-0.307,1.363-0.45
	c0.86-0.265,1.787-0.513,2.777-0.737c0.529-0.124,1.075-0.237,1.64-0.351c1.035-0.203,2.124-0.391,3.258-0.551
	c1.135-0.164,2.308-0.308,3.515-0.428c1.195-0.116,2.414-0.214,3.657-0.289c1.237-0.069,2.494-0.12,3.756-0.147
	c1.247-0.026,2.499-0.031,3.746-0.009c1.241,0.018,2.475,0.062,3.689,0.127c1.202,0.064,2.387,0.153,3.539,0.261
	c1.144,0.107,2.259,0.236,3.333,0.389c1.064,0.145,2.087,0.312,3.057,0.497c1.917,0.364,3.636,0.797,5.083,1.291
	c1.419,0.478,2.577,1.012,3.428,1.577c0.831,0.555,1.362,1.135,1.565,1.727c0.201,0.576,0.085,1.166-0.339,1.733
	c-0.417,0.559-1.139,1.1-2.139,1.605c-0.972,0.489-2.215,0.948-3.678,1.348c-0.953,0.265-2.003,0.499-3.126,0.713
	c0.282-0.261,0.486-0.503,0.536-0.893c0.046-0.391-0.188-0.67-0.561-0.805c-0.687-0.256-1.564-0.016-2.171,0.193
	c-0.331,0.113-0.674,0.222-1.031,0.327c-0.713,0.207-1.481,0.391-2.29,0.556c-0.805,0.163-1.651,0.298-2.521,0.415
	c-0.871,0.115-1.765,0.204-2.669,0.266c-0.904,0.066-1.818,0.107-2.727,0.122c-0.271,0.005-0.543,0.005-0.815,0.005
	c-0.811,0-1.612-0.012-2.405-0.035c-1.129-0.032-2.238-0.092-3.302-0.167c-1.062-0.082-2.086-0.182-3.055-0.298
	c-0.969-0.124-1.881-0.261-2.728-0.417c-0.845-0.153-1.62-0.325-2.321-0.509c-0.655-0.171-1.24-0.352-1.752-0.542
	c-0.267-0.1-0.524-0.163-0.812-0.158c-0.251,0-0.591,0.066-0.727,0.309c-0.14,0.25,0.02,0.538,0.185,0.717
	c0.191,0.205,0.417,0.339,0.681,0.443c0.123,0.051,0.249,0.102,0.382,0.151c0.581,0.223,1.21,0.43,1.888,0.622
	c0.688,0.197,1.419,0.377,2.191,0.541c0.779,0.164,1.598,0.312,2.451,0.444c0.856,0.132,1.75,0.243,2.665,0.339
	c0.926,0.096,1.876,0.171,2.836,0.228c0.976,0.054,1.957,0.087,2.946,0.1c1.004,0.013,2.01,0.004,3.01-0.029
	c1.006-0.029,2.008-0.082,2.99-0.156c0.726-0.052,1.441-0.12,2.145-0.199c0.173-0.013,0.346-0.04,0.518-0.055
	c0,0.363,0.466,0.58,0.753,0.671c0.364,0.115,0.713,0.146,1.089,0.115c1.54-0.111,3.043-0.262,4.492-0.443
	c1.474-0.186,2.884-0.402,4.224-0.654c1.336-0.25,2.592-0.533,3.752-0.841c1.161-0.308,2.22-0.645,3.161-1.008
	C70.685,19.676,71.506,19.291,72.197,18.89z"/>
<path fill="#C6C6C5" d="M45.222,16.488c-0.114-0.167-0.312-0.33-0.595-0.479c-0.259-0.135-0.589-0.262-0.978-0.375
	c-0.352-0.099-0.753-0.183-1.194-0.251c-0.392-0.059-0.816-0.104-1.257-0.133c-0.299-0.018-0.604-0.032-0.91-0.032
	c-0.309,0-0.617,0.014-0.915,0.032c-0.439,0.029-0.863,0.074-1.255,0.133c-0.443,0.068-0.845,0.152-1.195,0.251
	c-0.391,0.113-0.72,0.24-0.977,0.375c-0.283,0.149-0.481,0.312-0.599,0.479c-0.123,0.178-0.144,0.368-0.074,0.548
	c0.079,0.197,0.262,0.392,0.547,0.579c0.302,0.196,0.719,0.383,1.217,0.55c0.536,0.181,1.17,0.339,1.871,0.467
	c0.746,0.14,1.572,0.249,2.434,0.322c0.452,0.042,0.915,0.071,1.383,0.096c0.483,0.024,0.971,0.036,1.46,0.039
	c0.102,0,0.201,0,0.299,0c0.432,0,0.866-0.007,1.295-0.018c0.548-0.015,1.09-0.04,1.624-0.074c1.113-0.076,2.181-0.192,3.167-0.343
	c1.035-0.159,1.98-0.358,2.795-0.586c0.86-0.236,1.583-0.507,2.137-0.795c0.59-0.3,1.001-0.628,1.226-0.961
	c0.137-0.206,0.207-0.415,0.207-0.625c0-0.146-0.03-0.29-0.098-0.436c-0.161-0.365-0.525-0.727-1.069-1.065
	c-0.566-0.354-1.327-0.684-2.247-0.981c-0.958-0.312-2.083-0.584-3.329-0.81c-1.293-0.231-2.713-0.415-4.2-0.542
	c-1.544-0.132-3.16-0.206-4.78-0.219c-0.165,0-0.328,0-0.487,0c-4.435,0-10.05,0.66-14.149,2.574
	c-0.299,0.135-0.562,0.302-0.797,0.523c-0.194,0.188-0.454,0.521-0.288,0.816c0.157,0.277,0.594,0.328,0.867,0.319
	c0.34-0.006,0.641-0.086,0.949-0.213c4-1.661,9.169-2.261,13.445-2.261c0.063,0,0.129,0,0.19,0c0.569,0.002,1.127,0.022,1.664,0.057
	c0.537,0.032,1.055,0.082,1.549,0.14c0.49,0.06,0.956,0.137,1.389,0.216c0.432,0.087,0.83,0.18,1.191,0.283
	c0.361,0.101,0.682,0.211,0.965,0.327c0.284,0.116,0.525,0.236,0.727,0.363c0.199,0.124,0.357,0.253,0.471,0.38
	c0.118,0.129,0.191,0.26,0.226,0.386c0.036,0.126,0.031,0.254-0.01,0.373c-0.045,0.119-0.119,0.237-0.234,0.348
	c-0.107,0.111-0.25,0.216-0.42,0.314c-0.168,0.098-0.361,0.19-0.577,0.27c-0.215,0.084-0.451,0.156-0.7,0.222
	c-0.247,0.064-0.51,0.119-0.782,0.167c-0.268,0.042-0.544,0.08-0.824,0.105c-0.04,0.005-0.083,0.011-0.126,0.013
	c-0.134,0.012-0.266,0.021-0.4,0.026c0.116-0.11,0.201-0.226,0.245-0.342C45.371,16.856,45.35,16.667,45.222,16.488z"/>
<path fill="#1E1E1E" d="M176.444,39.38c8.876,0,12.288,5.234,12.288,14.507c0,8.701-3.186,14.394-12.403,14.394
	c-9.214,0-12.457-5.692-12.457-14.394C163.872,44.614,167.57,39.38,176.444,39.38z M182.36,53.887c0-5.293-0.854-9.615-5.857-9.615
	c-5.064,0-6.317,4.157-6.317,9.615c0,5.061,1.025,9.441,6.032,9.441S182.36,59.177,182.36,53.887z"/>
<path fill="#1E1E1E" d="M234.084,35.204c-2.23,0-3.818-1.669-3.818-3.879c0-2.337,1.764-3.883,3.818-3.883
	c2.036,0,3.797,1.546,3.797,3.883C237.881,33.659,236.12,35.204,234.084,35.204z M234.084,28.116c-1.68,0-2.988,1.319-2.988,3.208
	c0,1.762,1.143,3.206,2.988,3.206c1.661,0,2.969-1.308,2.969-3.206C237.053,29.435,235.745,28.116,234.084,28.116z M233.317,33.546
	h-0.706V29.25h1.63c1.036,0,1.567,0.361,1.567,1.233c0,0.779-0.479,1.101-1.124,1.172l1.206,1.891h-0.799l-1.109-1.84h-0.665V33.546
	z M234.105,31.105c0.529,0,0.996-0.053,0.996-0.672c0-0.519-0.51-0.583-0.932-0.583h-0.853v1.256H234.105z"/>
<path fill="#1E1E1E" d="M65.7,28.002l-10.866,39.71h-6.312l-7.681-28.845l-7.792,28.845h-6.318L15.87,28.002h6.256l7.735,28.843
	l7.794-28.843h6.201l7.85,28.843l7.737-28.843H65.7z"/>
<path fill="#1E1E1E" d="M68.596,28.116l6.257-0.511v9.727l-0.113,3.643h0.227c2.903-1.083,5.235-1.595,8.077-1.595
	c5.063,0,8.477,2.276,8.477,10.981v17.352h-6.257V50.871c0-5.233-2.56-5.917-5.46-5.917c-1.82,0-3.356,0.4-4.95,0.854v21.904h-6.257
	V28.116z"/>
<path fill="#1E1E1E" d="M100.109,28.514c3.243,0,3.756,1.88,3.756,3.984c0,2.105-0.685,4.04-3.756,4.04
	c-3.07,0-3.697-1.935-3.697-4.04C96.413,30.394,96.98,28.514,100.109,28.514z M96.98,39.777h6.258v27.936H96.98V39.777z"/>
<path fill="#1E1E1E" d="M108.529,39.777h4.265l0.854,2.277h0.397c1.647-1.423,4.267-2.674,7.68-2.674c0.396,0,0.853,0,1.307,0.058
	v6.145c-1.137-0.172-2.331-0.343-3.526-0.343c-1.709,0-3.073,0.398-4.72,1.138v21.335h-6.258V39.777z"/>
<path fill="#1E1E1E" d="M125.705,67.713V28.116l6.258-0.511v40.107H125.705z"/>
<path fill="#1E1E1E" d="M204.488,39.38c8.873,0,12.285,5.234,12.285,14.507c0,8.701-3.185,14.394-12.402,14.394
	c-9.215,0-12.455-5.692-12.455-14.394C191.916,44.614,195.613,39.38,204.488,39.38z M210.404,53.887
	c0-5.293-0.855-9.615-5.859-9.615c-5.061,0-6.314,4.157-6.314,9.615c0,5.061,1.023,9.441,6.028,9.441
	C209.266,63.328,210.404,59.177,210.404,53.887z"/>
<path fill="#1E1E1E" d="M220.926,67.713V28.116l6.254-0.511v40.107H220.926z"/>
<path fill="#3D3D3D" d="M177.961,9.346c-5.217-5.534-24.713,4.982-44.604,21.401v2.134c19.483-16.262,37.821-25.83,42.048-21.342
	c2.15,2.276,0.258,9.408-4.604,17.681c-0.701,0.327-1.476,0.981-2.192,2.016c-6.18,8.89-15.243,19.68-25.097,28.973
	c-25.355,23.91-49.907,38.418-54.878,33.147c-2.833-3.004,1.814-12.719,10.292-24.249h-2.35
	c-8.99,12.257-13.859,22.835-10.26,26.657c6.262,6.633,34.664-9.587,59.967-33.451c11.471-10.807,20.181-19.985,25.552-28.134
	c1.549-2.352,1.613-4.016,0.965-4.758C178.875,19.967,181.06,12.631,177.961,9.346z"/>
<path fill="#1E1E1E" d="M143.281,46.206c1.534-0.51,3.07-0.795,4.664-0.795c3.228,0,5.319,0.93,6.064,4.05
	c1.623-1.799,3.193-3.598,4.701-5.388c-1.751-3.231-4.562-4.692-7.919-4.692c-3.132,0-6.317,1.422-8.192,2.446h-0.283l-0.514-2.046
	h-4.721v26.304c1.984-1.759,3.98-3.58,5.985-5.463C143.281,54.642,143.281,51.734,143.281,46.206z"/>
<path fill="#1D1D1B" d="M154.24,54.621c-0.432,6.338-2.854,8.029-6.352,8.029c-0.705,0-1.332-0.012-1.941-0.025
	c-2.928,2.754-5.896,5.401-8.865,7.922v10.475l6.255-0.679V67.539h0.174c1.761,0.341,3.698,0.57,5.46,0.57
	c7.282,0,11.662-4.836,11.662-14.622c0-1.873-0.15-3.541-0.425-5.014C158.352,50.461,156.361,52.507,154.24,54.621z"/>
<path fill="#1E1E1E" d="M58.739,20.679c0.282-0.261,0.486-0.503,0.536-0.893c0.046-0.391-0.188-0.67-0.561-0.805
	c-0.687-0.256-1.564-0.016-2.171,0.193c-0.331,0.113-0.674,0.222-1.031,0.327c-0.713,0.207-1.481,0.391-2.29,0.556
	c-0.805,0.163-1.651,0.298-2.521,0.415c-0.871,0.115-1.765,0.204-2.669,0.266c-0.904,0.066-1.818,0.107-2.727,0.122
	c-0.271,0.005-0.543,0.005-0.815,0.005c-0.811,0-1.612-0.012-2.405-0.035c-1.129-0.032-2.238-0.092-3.302-0.167
	c-1.062-0.082-2.086-0.182-3.055-0.298c-0.969-0.124-1.881-0.261-2.728-0.417c-0.845-0.153-1.62-0.325-2.321-0.509
	c-0.655-0.171-1.24-0.352-1.752-0.542c-0.267-0.1-0.524-0.163-0.812-0.158c-0.251,0-0.591,0.066-0.727,0.309
	c-0.14,0.25,0.02,0.538,0.185,0.717c0.191,0.205,0.417,0.339,0.681,0.443c0.123,0.051,0.249,0.102,0.382,0.151
	c0.581,0.223,1.21,0.43,1.888,0.622c0.688,0.197,1.419,0.377,2.191,0.541c0.779,0.164,1.598,0.312,2.451,0.444
	c0.856,0.132,1.75,0.243,2.665,0.339c0.926,0.096,1.876,0.171,2.836,0.228c0.976,0.054,1.957,0.087,2.946,0.1
	c1.004,0.013,2.01,0.004,3.01-0.029c1.006-0.029,2.008-0.082,2.99-0.156c0.726-0.052,1.441-0.12,2.145-0.199
	c0.173-0.013,0.346-0.04,0.518-0.055c0,0.363,0.466,0.58,0.753,0.671c0.364,0.115,0.713,0.146,1.089,0.115
	c1.54-0.111,3.043-0.262,4.492-0.443c1.473-0.186,2.884-0.402,4.224-0.654c1.336-0.25,2.592-0.533,3.752-0.841
	c1.159-0.308,2.22-0.645,3.161-1.008c0.938-0.357,1.759-0.743,2.45-1.143c0.689-0.402,1.243-0.822,1.648-1.252
	c0.414-0.429,0.673-0.87,0.783-1.319c0.112-0.451,0.068-0.897-0.129-1.351c-0.201-0.449-0.552-0.898-1.062-1.337
	c-0.507-0.438-1.169-0.866-1.978-1.283c-0.805-0.414-1.76-0.81-2.85-1.188c-1.09-0.373-2.31-0.729-3.656-1.054
	c-1.342-0.325-2.802-0.621-4.359-0.881c-1.561-0.264-3.218-0.492-4.948-0.685c-1.731-0.191-3.537-0.342-5.392-0.456
	c-1.853-0.114-3.756-0.183-5.678-0.211c-1.919-0.027-3.86-0.014-5.793,0.042c-1.928,0.06-3.847,0.162-5.727,0.308
	C31.182,8.37,29.34,8.558,27.573,8.79c-1.771,0.223-3.468,0.492-5.069,0.803c-1.602,0.303-3.104,0.652-4.486,1.029
	c-1.38,0.375-2.639,0.784-3.754,1.221c-1.114,0.434-2.082,0.903-2.889,1.388c-0.805,0.48-1.449,0.986-1.916,1.506
	c-0.471,0.515-0.764,1.047-0.874,1.583c-0.111,0.537-0.037,1.076,0.222,1.611c0.257,0.537,0.701,1.073,1.328,1.596
	c0.623,0.521,1.434,1.032,2.414,1.525c0.981,0.488,2.133,0.961,3.444,1.399c1.314,0.446,2.781,0.86,4.388,1.244
	c1.606,0.38,3.351,0.728,5.212,1.035c1.858,0.306,3.832,0.572,5.883,0.792c2.054,0.223,4.188,0.398,6.393,0.526
	c0.318,0.018,0.636,0.04,0.956,0.055c0.3,0.015,0.568-0.016,0.844-0.144c0.246-0.107,0.5-0.312,0.526-0.593
	c0.026-0.293-0.214-0.513-0.454-0.634c-0.27-0.135-0.536-0.187-0.831-0.206c-1.122-0.071-2.231-0.157-3.319-0.258
	c-1.396-0.13-2.758-0.285-4.072-0.468c-1.307-0.181-2.566-0.387-3.763-0.615c-1.182-0.22-2.306-0.468-3.357-0.734
	c-0.861-0.216-1.672-0.448-2.425-0.691c-2.059-0.654-3.709-1.4-4.866-2.191c-0.503-0.346-0.915-0.703-1.226-1.06
	c-0.308-0.358-0.521-0.72-0.632-1.087c-0.115-0.362-0.128-0.727-0.043-1.089c0.086-0.358,0.265-0.715,0.542-1.069
	c0.277-0.345,0.646-0.695,1.11-1.032c0.453-0.331,1-0.652,1.632-0.964c0.625-0.309,1.339-0.607,2.127-0.894
	c0.431-0.154,0.884-0.307,1.363-0.45c0.86-0.265,1.787-0.513,2.777-0.737c0.529-0.124,1.075-0.237,1.64-0.351
	c1.035-0.203,2.124-0.391,3.258-0.551c1.135-0.164,2.308-0.308,3.515-0.428c1.195-0.116,2.414-0.214,3.657-0.289
	c1.237-0.069,2.494-0.12,3.756-0.147c1.247-0.026,2.499-0.031,3.746-0.009c1.241,0.018,2.475,0.062,3.689,0.127
	c1.202,0.064,2.387,0.153,3.539,0.261c1.144,0.107,2.259,0.236,3.333,0.389c1.064,0.145,2.087,0.312,3.057,0.497
	c1.917,0.364,3.635,0.797,5.083,1.291c1.418,0.478,2.577,1.012,3.428,1.577c0.828,0.555,1.362,1.135,1.565,1.727
	c0.201,0.576,0.085,1.166-0.339,1.733c-0.418,0.559-1.139,1.1-2.139,1.605c-0.972,0.489-2.215,0.948-3.678,1.348
	C60.91,20.231,59.862,20.465,58.739,20.679z"/>
<path fill="#1E1E1E" d="M27.309,15.652C27,15.779,26.7,15.859,26.36,15.865c-0.273,0.009-0.71-0.042-0.867-0.319
	c-0.166-0.295,0.094-0.628,0.288-0.816c0.235-0.222,0.499-0.388,0.797-0.523c4.099-1.914,9.714-2.574,14.149-2.574
	c0.159,0,0.322,0,0.487,0c1.62,0.013,3.236,0.087,4.78,0.219c1.486,0.128,2.907,0.312,4.2,0.542c1.246,0.226,2.371,0.498,3.329,0.81
	c0.92,0.297,1.681,0.627,2.247,0.981c0.544,0.338,0.909,0.7,1.069,1.065c0.068,0.146,0.098,0.29,0.098,0.436
	c0,0.21-0.069,0.418-0.207,0.625c-0.225,0.333-0.635,0.661-1.226,0.961c-0.554,0.289-1.277,0.56-2.137,0.795
	c-0.814,0.228-1.76,0.427-2.795,0.586c-0.987,0.151-2.054,0.267-3.167,0.343c-0.534,0.035-1.076,0.06-1.624,0.074
	c-0.429,0.011-0.863,0.018-1.295,0.018c-0.099,0-0.198,0-0.299,0c-0.489-0.002-0.977-0.015-1.46-0.039
	c-0.468-0.025-0.931-0.054-1.383-0.096c-0.862-0.073-1.688-0.182-2.434-0.322c-0.701-0.128-1.335-0.287-1.871-0.467
	c-0.499-0.167-0.915-0.354-1.217-0.55c-0.285-0.187-0.468-0.382-0.547-0.579c-0.07-0.181-0.049-0.37,0.074-0.548
	c0.118-0.167,0.316-0.33,0.599-0.479c0.257-0.135,0.586-0.262,0.977-0.375c0.35-0.099,0.751-0.183,1.195-0.251
	c0.392-0.059,0.816-0.104,1.255-0.133c0.298-0.018,0.606-0.032,0.915-0.032c0.305,0,0.61,0.014,0.91,0.032
	c0.441,0.029,0.865,0.074,1.257,0.133c0.441,0.068,0.842,0.152,1.194,0.251c0.389,0.113,0.719,0.24,0.978,0.375
	c0.283,0.149,0.481,0.312,0.595,0.479c0.127,0.178,0.148,0.368,0.076,0.548c-0.044,0.116-0.128,0.231-0.245,0.342
	c0.135-0.005,0.267-0.015,0.4-0.026c0.044-0.002,0.087-0.008,0.126-0.013c0.279-0.025,0.556-0.063,0.824-0.105
	c0.272-0.048,0.535-0.102,0.782-0.167c0.249-0.066,0.485-0.138,0.7-0.222c0.216-0.079,0.409-0.171,0.577-0.27
	c0.17-0.098,0.313-0.203,0.42-0.314c0.115-0.11,0.188-0.229,0.234-0.348c0.041-0.119,0.046-0.247,0.01-0.373
	c-0.035-0.126-0.108-0.256-0.226-0.386c-0.114-0.127-0.272-0.256-0.471-0.38c-0.201-0.127-0.442-0.247-0.727-0.363
	c-0.283-0.116-0.604-0.227-0.965-0.327c-0.361-0.103-0.759-0.195-1.191-0.283c-0.433-0.079-0.898-0.156-1.389-0.216
	c-0.494-0.059-1.013-0.108-1.549-0.14c-0.537-0.035-1.095-0.054-1.664-0.057c-0.061,0-0.127,0-0.19,0
	C36.479,13.391,31.309,13.991,27.309,15.652z"/>
</svg>
