<?xml version="1.0" encoding="utf-8"?>
<!-- Generator: Adobe Illustrator 16.0.0, SVG Export Plug-In . SVG Version: 6.00 Build 0)  -->
<!DOCTYPE svg PUBLIC "-//W3C//DTD SVG 1.1//EN" "http://www.w3.org/Graphics/SVG/1.1/DTD/svg11.dtd">
<svg version="1.1" id="Layer_1" xmlns="http://www.w3.org/2000/svg" xmlns:xlink="http://www.w3.org/1999/xlink" x="0px" y="0px"
	 width="768px" height="251.333px" viewBox="0 0 768 251.333" enable-background="new 0 0 768 251.333" xml:space="preserve">
<g>
	<path fill="#FFFFFF" stroke="#222222" stroke-width="4" stroke-miterlimit="10" d="M444.738,172.761h290.361
		c16.064,0,29.207-13.143,29.207-29.207v-39.367c0-16.064-13.143-29.208-29.207-29.208l0,0H441.162"/>
	<path fill-rule="evenodd" clip-rule="evenodd" fill="none" d="M735.099,74.979H457.162l2.668,3.003
		c1.725,1.939,3.432,3.894,5.172,5.819c3.602,3.987,6.172,8.828,3.914,14.238c-2.518,6.034-8.215,7.135-14.043,7.219l-6.738,0.1
		v60.304c0,2.51-0.496,4.906-1.396,7.098h288.361c16.064,0,29.207-13.143,29.207-29.207v-39.367
		C764.306,88.123,751.164,74.979,735.099,74.979L735.099,74.979z"/>
	<path fill-rule="evenodd" clip-rule="evenodd" fill="#222222" d="M33.328,74.979h278.535l-2.486,2.799l14.102-15.872V30.977h27.484
		l16.521-18.593c10.721-12.065,23.375-11.745,34.038,0.179l29.16,32.614l29.148,32.806c1.725,1.939,3.432,3.894,5.172,5.819
		c3.602,3.987,6.172,8.828,3.914,14.238c-2.518,6.034-8.215,7.135-14.043,7.219l-6.738,0.1v60.304
		c0,10.348-8.43,18.777-18.777,18.777h-90.231c-7.837,0-14.573-4.836-17.381-11.68H33.328c-16.064,0-29.208-13.143-29.208-29.207
		v-39.367C4.12,88.123,17.264,74.979,33.328,74.979L33.328,74.979z"/>
	<path fill="none" stroke="#007FB3" stroke-width="2.800000e-04" stroke-miterlimit="2.6131" d="M33.328,74.979h278.535
		l-2.486,2.799l14.102-15.872V30.977h27.484l16.521-18.593c10.721-12.065,23.375-11.745,34.038,0.179l29.16,32.614l29.148,32.806
		c1.725,1.939,3.432,3.894,5.172,5.819c3.602,3.987,6.172,8.828,3.914,14.238c-2.518,6.034-8.215,7.135-14.043,7.219l-6.738,0.1
		v60.304c0,10.348-8.43,18.777-18.777,18.777h-90.231c-7.837,0-14.573-4.836-17.381-11.68H33.328
		c-16.064,0-29.208-13.143-29.208-29.207v-39.367C4.12,88.123,17.264,74.979,33.328,74.979L33.328,74.979z"/>
	<path fill-rule="evenodd" clip-rule="evenodd" fill="#FFFFFF" d="M444.175,101.457v64.206c0,8.162-6.656,14.816-14.818,14.816
		h-90.231c-8.162,0-14.817-6.654-14.817-14.816v-64.177c-4.638,0.02-9.275,0.092-13.912-0.005
		c-7.177-0.151-10.268-7.336-5.52-12.679l7.46-8.394l15.103-16.997V34.937h25.302l17.702-19.923
		c9.17-10.321,19.082-9.927,28.125,0.188l29.156,32.607l29.146,32.803c1.73,1.948,3.445,3.911,5.191,5.844
		c2.486,2.75,4.816,6.183,3.199,10.058c-1.82,4.361-6.412,4.727-10.447,4.786L444.175,101.457L444.175,101.457z"/>
	<path fill="none" stroke="#FFFFFF" stroke-width="2.800000e-04" stroke-miterlimit="2.6131" d="M444.175,101.457v64.206
		c0,8.162-6.656,14.816-14.818,14.816h-90.231c-8.162,0-14.817-6.654-14.817-14.816v-64.177c-4.638,0.02-9.275,0.092-13.912-0.005
		c-7.177-0.151-10.268-7.336-5.52-12.679l7.46-8.394l15.103-16.997V34.937h25.302l17.702-19.923
		c9.17-10.321,19.082-9.927,28.125,0.188l29.156,32.607l29.146,32.803c1.73,1.948,3.445,3.911,5.191,5.844
		c2.486,2.75,4.816,6.183,3.199,10.058c-1.82,4.361-6.412,4.727-10.447,4.786L444.175,101.457L444.175,101.457z"/>
	<path fill-rule="evenodd" clip-rule="evenodd" fill="#FFFFFF" d="M158.156,115.927h16.155v15.781h-16.155V115.927L158.156,115.927z
		 M268.549,143.755h9.036c13.69,0,24.962-10.98,24.962-24.406c0-13.426-11.271-24.406-25.008-24.406h-23.365v57.747h14.375V143.755
		L268.549,143.755z M268.594,128.952l-0.045-19.16l8.99-0.045c5.385,0,9.812,4.312,9.812,9.602c0,5.291-4.427,9.603-9.812,9.603
		H268.594L268.594,128.952z M212.92,95.032c16.2,0,29.525,12.981,29.525,28.807c0,15.826-13.325,28.808-29.525,28.808
		c-16.201,0-29.527-12.982-29.527-28.808C183.393,108.013,196.719,95.032,212.92,95.032L212.92,95.032z M212.92,109.88
		c7.85,0,14.283,6.268,14.283,13.959c0,7.691-6.434,13.958-14.283,13.958s-14.285-6.268-14.285-13.958
		C198.635,116.148,205.07,109.88,212.92,109.88L212.92,109.88z M81.945,144.868c-5.43,4.934-12.869,7.779-20.262,7.779
		c-16.2,0-29.525-12.982-29.525-28.808c0-15.826,13.325-28.807,29.525-28.807c7.164,0,14.558,2.712,19.896,7.469l-9.127,12.135
		c-2.646-2.977-6.754-4.756-10.77-4.756c-7.85,0-14.283,6.268-14.283,13.959c0,7.691,6.434,13.958,14.283,13.958
		c4.152,0,8.215-1.777,10.907-4.889L81.945,144.868L81.945,144.868z M119.549,95.032c16.201,0,29.527,12.981,29.527,28.807
		c0,15.826-13.326,28.808-29.527,28.808c-16.199,0-29.525-12.982-29.525-28.808C90.023,108.013,103.35,95.032,119.549,95.032
		L119.549,95.032z M119.549,109.88c7.85,0,14.284,6.268,14.284,13.959c0,7.691-6.435,13.958-14.284,13.958
		c-7.849,0-14.283-6.268-14.283-13.958C105.266,116.148,111.7,109.88,119.549,109.88L119.549,109.88z"/>
	<path fill="none" stroke="#FFFFFF" stroke-width="2.800000e-04" stroke-miterlimit="2.6131" d="M158.156,115.927h16.155v15.781
		h-16.155V115.927L158.156,115.927z M268.549,143.755h9.036c13.69,0,24.962-10.98,24.962-24.406
		c0-13.426-11.271-24.406-25.008-24.406h-23.365v57.747h14.375V143.755L268.549,143.755z M268.594,128.952l-0.045-19.16l8.99-0.045
		c5.385,0,9.812,4.312,9.812,9.602c0,5.291-4.427,9.603-9.812,9.603H268.594L268.594,128.952z M212.92,95.032
		c16.2,0,29.525,12.981,29.525,28.807c0,15.826-13.325,28.808-29.525,28.808c-16.201,0-29.527-12.982-29.527-28.808
		C183.393,108.013,196.719,95.032,212.92,95.032L212.92,95.032z M212.92,109.88c7.85,0,14.283,6.268,14.283,13.959
		c0,7.691-6.434,13.958-14.283,13.958s-14.285-6.268-14.285-13.958C198.635,116.148,205.07,109.88,212.92,109.88L212.92,109.88z
		 M81.945,144.868c-5.43,4.934-12.869,7.779-20.262,7.779c-16.2,0-29.525-12.982-29.525-28.808
		c0-15.826,13.325-28.807,29.525-28.807c7.164,0,14.558,2.712,19.896,7.469l-9.127,12.135c-2.646-2.977-6.754-4.756-10.77-4.756
		c-7.85,0-14.283,6.268-14.283,13.959c0,7.691,6.434,13.958,14.283,13.958c4.152,0,8.215-1.777,10.907-4.889L81.945,144.868
		L81.945,144.868z M119.549,95.032c16.201,0,29.527,12.981,29.527,28.807c0,15.826-13.326,28.808-29.527,28.808
		c-16.199,0-29.525-12.982-29.525-28.808C90.023,108.013,103.35,95.032,119.549,95.032L119.549,95.032z M119.549,109.88
		c7.85,0,14.284,6.268,14.284,13.959c0,7.691-6.435,13.958-14.284,13.958c-7.849,0-14.283-6.268-14.283-13.958
		C105.266,116.148,111.7,109.88,119.549,109.88L119.549,109.88z"/>
	<path fill="none" stroke="#76848F" stroke-width="2.800000e-04" stroke-miterlimit="2.6131" d="M438.054,95.362v70.301
		c0,4.783-3.914,8.697-8.697,8.697h-90.231c-4.784,0-8.697-3.914-8.697-8.697V95.362h-4.202c-5.234,0-10.469,0-15.701,0
		c-1.984-0.083-2.195-0.978-1.074-2.494l7.461-8.394l28.963-32.597l29.144-32.8c6.579-8.18,12.893-7.079,18.989,0.203l29.145,32.597
		l29.143,32.799c1.742,1.961,3.484,3.922,5.229,5.883c3.443,3.749,2.967,4.649-2.799,4.622l-12.283,0.181H438.054L438.054,95.362z"
		/>
	<path fill="#222222" stroke="#76848F" stroke-width="2.800000e-04" stroke-miterlimit="2.6131" d="M457.523,90.56
		c-1.744-1.961-3.486-3.922-5.229-5.883l-29.143-32.799l-29.145-32.597c-6.096-7.282-12.41-8.383-18.989-0.203l-19.887,22.381
		h-21.17v23.826l-17.05,19.189l-7.461,8.394c-1.121,1.516-0.91,2.411,1.074,2.494c5.232,0,10.467,0,15.701,0h4.202v70.301
		c0,4.783,3.913,8.697,8.697,8.697h90.231c4.783,0,8.697-3.914,8.697-8.697V95.362h4.387l12.283-0.181
		C460.49,95.209,460.966,94.309,457.523,90.56z"/>
	<path fill="#FFFFFF" d="M416.55,137.481h9.184c-2.871,5.793-7.285,10.316-13.232,13.598c-6.814,3.766-15.129,5.646-24.932,5.646
		c-9.48,0-17.678-1.59-24.582-4.77c-6.888-3.182-12.025-7.865-15.395-14.064c-3.355-6.201-5.034-12.943-5.034-20.238
		c0-8.01,1.913-15.464,5.726-22.381c3.826-6.9,9.066-12.094,15.705-15.552c6.638-3.459,14.232-5.195,22.769-5.195
		c7.242,0,13.674,1.401,19.311,4.188s9.936,6.755,12.924,11.906c2.973,5.135,4.459,10.767,4.459,16.864
		c0,7.268-2.266,13.834-6.77,19.697c-5.668,7.412-12.924,11.119-21.785,11.119c-2.383,0-4.18-0.408-5.385-1.24
		c-1.209-0.832-2.018-2.043-2.416-3.633c-3.384,3.254-7.3,4.873-11.73,4.873c-4.769,0-8.729-1.635-11.878-4.889
		c-3.149-3.268-4.726-7.601-4.726-13.029c0-6.697,1.9-12.795,5.697-18.325c4.606-6.726,10.494-10.096,17.677-10.096
		c5.124,0,8.905,1.941,11.348,5.821l1.074-4.756h11.379l-6.508,30.655c-0.396,1.939-0.602,3.193-0.602,3.763
		c0,0.715,0.16,1.24,0.5,1.605c0.322,0.35,0.721,0.525,1.178,0.525c1.383,0,3.164-0.818,5.357-2.48
		c2.928-2.16,5.297-5.064,7.109-8.711c1.809-3.648,2.707-7.426,2.707-11.336c0-7.003-2.547-12.87-7.668-17.582
		c-5.121-4.713-12.26-7.077-21.43-7.077c-7.787,0-14.395,1.576-19.812,4.728c-5.416,3.151-9.508,7.572-12.246,13.291
		c-2.752,5.707-4.121,11.658-4.121,17.843c0,6.012,1.531,11.484,4.593,16.414c3.062,4.934,7.358,8.521,12.893,10.799
		c5.534,2.262,11.864,3.398,18.989,3.398c6.873,0,12.789-0.949,17.734-2.846C409.544,144.12,413.533,141.276,416.55,137.481
		L416.55,137.481z M369.936,119.916c0,3.619,0.736,6.289,2.223,7.996c1.487,1.707,3.312,2.566,5.49,2.566
		c1.648,0,3.18-0.393,4.621-1.195c1.09-0.568,2.164-1.473,3.238-2.699c1.518-1.736,2.842-4.275,3.945-7.602
		c1.104-3.342,1.664-6.449,1.664-9.322c0-3.225-0.766-5.691-2.268-7.413c-1.516-1.722-3.414-2.582-5.71-2.582
		c-2.473,0-4.77,0.948-6.858,2.83c-2.104,1.897-3.681,4.596-4.755,8.112C370.467,114.109,369.936,117.216,369.936,119.916
		L369.936,119.916z"/>
	<path fill="none" stroke="#FFFFFF" stroke-width="2.800000e-04" stroke-miterlimit="2.6131" d="M416.55,137.481h9.184
		c-2.871,5.793-7.285,10.316-13.232,13.598c-6.814,3.766-15.129,5.646-24.932,5.646c-9.48,0-17.678-1.59-24.582-4.77
		c-6.888-3.182-12.025-7.865-15.395-14.064c-3.355-6.201-5.034-12.943-5.034-20.238c0-8.01,1.913-15.464,5.726-22.381
		c3.826-6.9,9.066-12.094,15.705-15.552c6.638-3.459,14.232-5.195,22.769-5.195c7.242,0,13.674,1.401,19.311,4.188
		s9.936,6.755,12.924,11.906c2.973,5.135,4.459,10.767,4.459,16.864c0,7.268-2.266,13.834-6.77,19.697
		c-5.668,7.412-12.924,11.119-21.785,11.119c-2.383,0-4.18-0.408-5.385-1.24c-1.209-0.832-2.018-2.043-2.416-3.633
		c-3.384,3.254-7.3,4.873-11.73,4.873c-4.769,0-8.729-1.635-11.878-4.889c-3.149-3.268-4.726-7.601-4.726-13.029
		c0-6.697,1.9-12.795,5.697-18.325c4.606-6.726,10.494-10.096,17.677-10.096c5.124,0,8.905,1.941,11.348,5.821l1.074-4.756h11.379
		l-6.508,30.655c-0.396,1.939-0.602,3.193-0.602,3.763c0,0.715,0.16,1.24,0.5,1.605c0.322,0.35,0.721,0.525,1.178,0.525
		c1.383,0,3.164-0.818,5.357-2.48c2.928-2.16,5.297-5.064,7.109-8.711c1.809-3.648,2.707-7.426,2.707-11.336
		c0-7.003-2.547-12.87-7.668-17.582c-5.121-4.713-12.26-7.077-21.43-7.077c-7.787,0-14.395,1.576-19.812,4.728
		c-5.416,3.151-9.508,7.572-12.246,13.291c-2.752,5.707-4.121,11.658-4.121,17.843c0,6.012,1.531,11.484,4.593,16.414
		c3.062,4.934,7.358,8.521,12.893,10.799c5.534,2.262,11.864,3.398,18.989,3.398c6.873,0,12.789-0.949,17.734-2.846
		C409.544,144.12,413.533,141.276,416.55,137.481L416.55,137.481z M369.936,119.916c0,3.619,0.736,6.289,2.223,7.996
		c1.487,1.707,3.312,2.566,5.49,2.566c1.648,0,3.18-0.393,4.621-1.195c1.09-0.568,2.164-1.473,3.238-2.699
		c1.518-1.736,2.842-4.275,3.945-7.602c1.104-3.342,1.664-6.449,1.664-9.322c0-3.225-0.766-5.691-2.268-7.413
		c-1.516-1.722-3.414-2.582-5.71-2.582c-2.473,0-4.77,0.948-6.858,2.83c-2.104,1.897-3.681,4.596-4.755,8.112
		C370.467,114.109,369.936,117.216,369.936,119.916L369.936,119.916z"/>
	<path fill="#222222" d="M714.136,96.722c5.268,0,9.99,0.944,14.201,2.814c4.211,1.888,7.686,4.852,10.443,8.913
		c2.453,3.588,4.061,7.723,4.795,12.445c0.436,2.775,0.605,6.759,0.529,11.953h-43.98c0.244,6.043,2.359,10.293,6.326,12.729
		c2.396,1.51,5.305,2.266,8.705,2.266c3.605,0,6.514-0.926,8.781-2.758c1.227-1,2.303-2.379,3.248-4.154h16.146
		c-0.436,3.57-2.379,7.215-5.855,10.896c-5.42,5.873-12.992,8.801-22.736,8.801c-8.045,0-15.125-2.475-21.283-7.422
		c-3.324-2.67-5.75-6.254-7.277-10.75l-0.049,16.189h-16.145v-38.392c0-2.305-0.379-4.174-1.115-5.646
		c-1.396-2.812-3.965-4.211-7.723-4.211c-4.361,0-7.365,1.812-9.025,5.42c-0.852,1.926-1.268,4.23-1.268,6.912v35.917h-15.881v-35.9
		c0-3.588-0.377-6.193-1.115-7.818c-1.32-2.906-3.908-4.361-7.779-4.361c-4.514,0-7.535,1.455-9.084,4.361
		c-0.85,1.662-1.264,4.135-1.264,7.424v36.294h-15.996v-19.521c-1.242,4.494-3.332,8.559-6.27,12.193
		c-5.098,6.289-12.822,9.424-23.189,9.424s-18.092-3.135-23.191-9.424c-3.787-4.689-6.17-10.094-7.135-16.215v23.543h-16.109V121.97
		c0-3.25-0.547-5.873-1.641-7.857c-1.438-2.812-4.156-4.209-8.158-4.209c-4.137,0-7.289,1.396-9.443,4.172
		c-2.133,2.795-3.211,6.762-3.211,11.936v32.632h-15.711V84.622h15.711v21.581c2.287-3.514,4.91-5.95,7.914-7.328
		c3.002-1.379,6.156-2.079,9.459-2.079c3.721,0,7.102,0.643,10.123,1.946c3.041,1.283,5.533,3.248,7.479,5.912
		c1.662,2.246,2.664,4.57,3.041,6.947c0.336,2.225,0.521,5.754,0.545,10.602c0.963-6.057,3.346-11.463,7.137-16.229
		c5.1-6.382,12.824-9.574,23.191-9.574s18.092,3.191,23.189,9.574c2.938,3.691,5.027,7.766,6.27,12.229V98.44h15.334v8.799
		c1.945-3.135,3.797-5.363,5.533-6.705c3.059-2.359,7.025-3.53,11.896-3.53c4.607,0,8.328,1.021,11.162,3.041
		c2.283,1.888,4.021,4.305,5.211,7.25c2.059-3.55,4.627-6.137,7.688-7.799c3.229-1.661,6.854-2.492,10.818-2.492
		c2.664,0,5.289,0.51,7.857,1.549c2.588,1.038,4.928,2.832,7.025,5.42c1.699,2.096,2.832,4.682,3.436,7.742
		c0.195,1.102,0.338,2.473,0.43,4.117c1.383-4.258,3.525-7.846,6.424-10.766C698.103,99.497,705.298,96.722,714.136,96.722
		L714.136,96.722z M570.22,147.521c4.607,0,8.158-1.643,10.633-4.93c2.473-3.285,3.699-7.949,3.699-13.994
		c0-6.042-1.227-10.707-3.699-13.974c-2.475-3.266-6.025-4.889-10.633-4.889s-8.158,1.623-10.65,4.889
		c-2.494,3.268-3.738,7.932-3.738,13.974c0,6.045,1.244,10.709,3.738,13.994C562.062,145.878,565.613,147.521,570.22,147.521
		L570.22,147.521z M714.154,109.714c-4.061,0-7.193,1.152-9.422,3.438c-2.229,2.283-3.646,5.381-4.211,9.289h27.211
		c-0.283-4.172-1.68-7.326-4.211-9.498C721.009,110.791,717.875,109.714,714.154,109.714L714.154,109.714z"/>
	<path fill="none" stroke="#FFFFFF" stroke-width="2.800000e-04" stroke-miterlimit="2.6131" d="M714.136,96.722
		c5.268,0,9.99,0.944,14.201,2.814c4.211,1.888,7.686,4.852,10.443,8.913c2.453,3.588,4.061,7.723,4.795,12.445
		c0.436,2.775,0.605,6.759,0.529,11.953h-43.98c0.244,6.043,2.359,10.293,6.326,12.729c2.396,1.51,5.305,2.266,8.705,2.266
		c3.605,0,6.514-0.926,8.781-2.758c1.227-1,2.303-2.379,3.248-4.154h16.146c-0.436,3.57-2.379,7.215-5.855,10.896
		c-5.42,5.873-12.992,8.801-22.736,8.801c-8.045,0-15.125-2.475-21.283-7.422c-3.324-2.67-5.75-6.254-7.277-10.75l-0.049,16.189
		h-16.145v-38.392c0-2.305-0.379-4.174-1.115-5.646c-1.396-2.812-3.965-4.211-7.723-4.211c-4.361,0-7.365,1.812-9.025,5.42
		c-0.852,1.926-1.268,4.23-1.268,6.912v35.917h-15.881v-35.9c0-3.588-0.377-6.193-1.115-7.818c-1.32-2.906-3.908-4.361-7.779-4.361
		c-4.514,0-7.535,1.455-9.084,4.361c-0.85,1.662-1.264,4.135-1.264,7.424v36.294h-15.996v-19.521
		c-1.242,4.494-3.332,8.559-6.27,12.193c-5.098,6.289-12.822,9.424-23.189,9.424s-18.092-3.135-23.191-9.424
		c-3.787-4.689-6.17-10.094-7.135-16.215v23.543h-16.109V121.97c0-3.25-0.547-5.873-1.641-7.857
		c-1.438-2.812-4.156-4.209-8.158-4.209c-4.137,0-7.289,1.396-9.443,4.172c-2.133,2.795-3.211,6.762-3.211,11.936v32.632h-15.711
		V84.622h15.711v21.581c2.287-3.514,4.91-5.95,7.914-7.328c3.002-1.379,6.156-2.079,9.459-2.079c3.721,0,7.102,0.643,10.123,1.946
		c3.041,1.283,5.533,3.248,7.479,5.912c1.662,2.246,2.664,4.57,3.041,6.947c0.336,2.225,0.521,5.754,0.545,10.602
		c0.963-6.057,3.346-11.463,7.137-16.229c5.1-6.382,12.824-9.574,23.191-9.574s18.092,3.191,23.189,9.574
		c2.938,3.691,5.027,7.766,6.27,12.229V98.44h15.334v8.799c1.945-3.135,3.797-5.363,5.533-6.705c3.059-2.359,7.025-3.53,11.896-3.53
		c4.607,0,8.328,1.021,11.162,3.041c2.283,1.888,4.021,4.305,5.211,7.25c2.059-3.55,4.627-6.137,7.688-7.799
		c3.229-1.661,6.854-2.492,10.818-2.492c2.664,0,5.289,0.51,7.857,1.549c2.588,1.038,4.928,2.832,7.025,5.42
		c1.699,2.096,2.832,4.682,3.436,7.742c0.195,1.102,0.338,2.473,0.43,4.117c1.383-4.258,3.525-7.846,6.424-10.766
		C698.103,99.497,705.298,96.722,714.136,96.722L714.136,96.722z M570.22,147.521c4.607,0,8.158-1.643,10.633-4.93
		c2.473-3.285,3.699-7.949,3.699-13.994c0-6.042-1.227-10.707-3.699-13.974c-2.475-3.266-6.025-4.889-10.633-4.889
		s-8.158,1.623-10.65,4.889c-2.494,3.268-3.738,7.932-3.738,13.974c0,6.045,1.244,10.709,3.738,13.994
		C562.062,145.878,565.613,147.521,570.22,147.521L570.22,147.521z M714.154,109.714c-4.061,0-7.193,1.152-9.422,3.438
		c-2.229,2.283-3.646,5.381-4.211,9.289h27.211c-0.283-4.172-1.68-7.326-4.211-9.498
		C721.009,110.791,717.875,109.714,714.154,109.714L714.154,109.714z"/>
</g>
</svg>
